BioRhyme-Bold Extended.ufo
<glyph name="dollar" format="1">
  <advance width="854"/>
  <unicode hex="0024"/>
  <outline>
    <contour>
      <point x="692" y="6"/>
      <point x="794" y="49"/>
      <point x="794" y="144" type="curve" smooth="yes"/>
      <point x="794" y="240"/>
      <point x="687" y="280"/>
      <point x="475" y="287" type="curve" smooth="yes"/>
      <point x="270" y="296"/>
      <point x="233" y="306"/>
      <point x="233" y="332" type="curve" smooth="yes"/>
      <point x="233" y="364"/>
      <point x="287" y="377"/>
      <point x="372" y="377" type="curve" smooth="yes"/>
      <point x="507" y="377"/>
      <point x="615" y="353"/>
      <point x="699" y="279" type="curve"/>
      <point x="759" y="291" type="line"/>
      <point x="759" y="465" type="line"/>
      <point x="659" y="465" type="line"/>
      <point x="659" y="354" type="line"/>
      <point x="709" y="350" type="line"/>
      <point x="622" y="427"/>
      <point x="520" y="464"/>
      <point x="346" y="464" type="curve" smooth="yes"/>
      <point x="212" y="464"/>
      <point x="116" y="411"/>
      <point x="116" y="324" type="curve" smooth="yes"/>
      <point x="116" y="251"/>
      <point x="167" y="199"/>
      <point x="372" y="190" type="curve" smooth="yes"/>
      <point x="600" y="172"/>
      <point x="677" y="159"/>
      <point x="677" y="127" type="curve" smooth="yes"/>
      <point x="677" y="91"/>
      <point x="617" y="91"/>
      <point x="552" y="89" type="curve" smooth="yes"/>
      <point x="457" y="86"/>
      <point x="301" y="98"/>
      <point x="178" y="206" type="curve"/>
      <point x="114" y="193" type="line"/>
      <point x="114" y="6" type="line"/>
      <point x="215" y="6" type="line"/>
      <point x="215" y="123" type="line"/>
      <point x="156" y="129" type="line"/>
      <point x="281" y="35"/>
      <point x="412" y="1"/>
      <point x="562" y="4" type="curve" smooth="yes"/>
    </contour>
    <contour>
      <point x="493" y="-111" type="line"/>
      <point x="493" y="78" type="line"/>
      <point x="487" y="91" type="line"/>
      <point x="487" y="405" type="line"/>
      <point x="493" y="417" type="line"/>
      <point x="493" y="580" type="line"/>
      <point x="405" y="580" type="line"/>
      <point x="405" y="414" type="line"/>
      <point x="411" y="399" type="line"/>
      <point x="411" y="91" type="line"/>
      <point x="405" y="74" type="line"/>
      <point x="405" y="-111" type="line"/>
    </contour>
  </outline>
</glyph>
<glyph name="ampersand" format="1">
  <advance width="821"/>
  <unicode hex="0026"/>
  <outline>
    <contour>
      <point x="535" y="-12"/>
      <point x="726" y="127"/>
      <point x="726" y="253" type="curve" smooth="yes"/>
      <point x="726" y="292"/>
      <point x="718" y="314"/>
      <point x="711" y="336" type="curve"/>
      <point x="609" y="311" type="line"/>
      <point x="613" y="295"/>
      <point x="617" y="280"/>
      <point x="617" y="258" type="curve" smooth="yes"/>
      <point x="617" y="161"/>
      <point x="467" y="82"/>
      <point x="286" y="82" type="curve" smooth="yes"/>
      <point x="194" y="82"/>
      <point x="162" y="112"/>
      <point x="162" y="152" type="curve" smooth="yes"/>
      <point x="162" y="191"/>
      <point x="202" y="218"/>
      <point x="347" y="233" type="curve" smooth="yes"/>
      <point x="515" y="250"/>
      <point x="582" y="327"/>
      <point x="582" y="403" type="curve" smooth="yes"/>
      <point x="582" y="473"/>
      <point x="529" y="528"/>
      <point x="433" y="528" type="curve" smooth="yes"/>
      <point x="325" y="528"/>
      <point x="258" y="447"/>
      <point x="258" y="358" type="curve" smooth="yes"/>
      <point x="256" y="138"/>
      <point x="487" y="-12"/>
      <point x="647" y="-12" type="curve" smooth="yes"/>
      <point x="696" y="-12"/>
      <point x="733" y="-6"/>
      <point x="761" y="4" type="curve"/>
      <point x="744" y="96" type="line"/>
      <point x="719" y="89"/>
      <point x="687" y="86"/>
      <point x="649" y="86" type="curve" smooth="yes"/>
      <point x="534" y="86"/>
      <point x="371" y="200"/>
      <point x="371" y="359" type="curve" smooth="yes"/>
      <point x="371" y="406"/>
      <point x="400" y="437"/>
      <point x="435" y="437" type="curve" smooth="yes"/>
      <point x="458" y="437"/>
      <point x="469" y="423"/>
      <point x="469" y="402" type="curve" smooth="yes"/>
      <point x="469" y="372"/>
      <point x="447" y="331"/>
      <point x="317" y="317" type="curve" smooth="yes"/>
      <point x="136" y="298"/>
      <point x="52" y="232"/>
      <point x="52" y="138" type="curve" smooth="yes"/>
      <point x="52" y="52"/>
      <point x="128" y="-12"/>
      <point x="287" y="-12" type="curve" smooth="yes"/>
    </contour>
  </outline>
</glyph>
<glyph name="parenleft" format="1">
  <advance width="380"/>
  <unicode hex="0028"/>
  <outline>
    <contour>
      <point x="405" y="-92" type="line"/>
      <point x="356" y="-84"/>
      <point x="176" y="28"/>
      <point x="176" y="255" type="curve" smooth="yes"/>
      <point x="176" y="482"/>
      <point x="344" y="581"/>
      <point x="405" y="600" type="curve"/>
      <point x="382" y="645" type="line"/>
      <point x="261" y="617"/>
      <point x="65" y="503"/>
      <point x="65" y="255" type="curve" smooth="yes"/>
      <point x="65" y="7"/>
      <point x="274" y="-119"/>
      <point x="382" y="-135" type="curve"/>
    </contour>
  </outline>
</glyph>
<glyph name="plus" format="1">
  <advance width="633"/>
  <unicode hex="002B"/>
  <outline>
    <contour>
      <point x="365" y="12" type="line"/>
      <point x="365" y="458" type="line"/>
      <point x="267" y="458" type="line"/>
      <point x="267" y="12" type="line"/>
    </contour>
    <contour>
      <point x="588" y="187" type="line"/>
      <point x="588" y="284" type="line"/>
      <point x="46" y="284" type="line"/>
      <point x="46" y="187" type="line"/>
    </contour>
  </outline>
</glyph>
<glyph name="hyphen" format="1">
  <advance width="332"/>
  <unicode hex="002D"/>
  <outline>
    <contour>
      <point x="22" y="228" type="line"/>
      <point x="22" y="130" type="line"/>
      <point x="310" y="130" type="line"/>
      <point x="310" y="228" type="line"/>
    </contour>
  </outline>
</glyph>
<glyph name="two" format="1">
  <advance width="704"/>
  <unicode hex="0032"/>
  <outline>
    <contour>
      <point x="439" y="166" type="line" smooth="yes"/>
      <point x="573" y="217"/>
      <point x="614" y="266"/>
      <point x="614" y="333" type="curve" smooth="yes"/>
      <point x="614" y="427"/>
      <point x="502" y="480"/>
      <point x="367" y="480" type="curve" smooth="yes"/>
      <point x="250" y="480"/>
      <point x="165" y="453"/>
      <point x="48" y="395" type="curve"/>
      <point x="86" y="307" type="line"/>
      <point x="193" y="359"/>
      <point x="278" y="384"/>
      <point x="367" y="384" type="curve" smooth="yes"/>
      <point x="450" y="384"/>
      <point x="493" y="359"/>
      <point x="493" y="328" type="curve" smooth="yes"/>
      <point x="493" y="295"/>
      <point x="471" y="273"/>
      <point x="383" y="236" type="curve" smooth="yes"/>
      <point x="51" y="96" type="line"/>
      <point x="129" y="48" type="line"/>
    </contour>
    <contour>
      <point x="660" y="0" type="line"/>
      <point x="660" y="175" type="line"/>
      <point x="564" y="175" type="line"/>
      <point x="564" y="96" type="line"/>
      <point x="52" y="96" type="line"/>
      <point x="52" y="0" type="line"/>
    </contour>
  </outline>
</glyph>
<glyph name="three" format="1">
  <advance width="758"/>
  <unicode hex="0033"/>
  <outline>
    <contour>
      <point x="570" y="-5"/>
      <point x="705" y="48"/>
      <point x="705" y="124" type="curve" smooth="yes"/>
      <point x="705" y="234"/>
      <point x="563" y="250"/>
      <point x="349" y="250" type="curve"/>
      <point x="349" y="214" type="line"/>
      <point x="527" y="213"/>
      <point x="676" y="262"/>
      <point x="676" y="347" type="curve" smooth="yes"/>
      <point x="676" y="431"/>
      <point x="578" y="480"/>
      <point x="400" y="480" type="curve" smooth="yes"/>
      <point x="267" y="480"/>
      <point x="128" y="437"/>
      <point x="46" y="387" type="curve"/>
      <point x="99" y="308" type="line"/>
      <point x="180" y="353"/>
      <point x="287" y="383"/>
      <point x="394" y="383" type="curve" smooth="yes"/>
      <point x="511" y="383"/>
      <point x="555" y="362"/>
      <point x="555" y="335" type="curve" smooth="yes"/>
      <point x="555" y="298"/>
      <point x="490" y="277"/>
      <point x="326" y="277" type="curve" smooth="yes"/>
      <point x="168" y="277" type="line"/>
      <point x="168" y="190" type="line"/>
      <point x="326" y="190" type="line" smooth="yes"/>
      <point x="520" y="190"/>
      <point x="584" y="182"/>
      <point x="584" y="137" type="curve" smooth="yes"/>
      <point x="584" y="108"/>
      <point x="506" y="91"/>
      <point x="381" y="91" type="curve" smooth="yes"/>
      <point x="234" y="91"/>
      <point x="123" y="130"/>
      <point x="87" y="155" type="curve"/>
      <point x="46" y="70" type="line"/>
      <point x="81" y="50"/>
      <point x="191" y="-5"/>
      <point x="381" y="-5" type="curve" smooth="yes"/>
    </contour>
  </outline>
</glyph>
<glyph name="four" format="1">
  <advance width="728"/>
  <unicode hex="0034"/>
  <outline>
    <contour>
      <point x="575" y="448" type="line"/>
      <point x="462" y="480" type="line"/>
      <point x="19" y="197" type="line"/>
      <point x="109" y="156" type="line"/>
    </contour>
    <contour>
      <point x="713" y="101" type="line"/>
      <point x="713" y="197" type="line"/>
      <point x="19" y="197" type="line"/>
      <point x="19" y="101" type="line"/>
    </contour>
    <contour>
      <point x="462" y="-10" type="line"/>
      <point x="577" y="-10" type="line"/>
      <point x="577" y="480" type="line"/>
      <point x="462" y="480" type="line"/>
    </contour>
  </outline>
</glyph>
<glyph name="six" format="1">
  <advance width="717"/>
  <unicode hex="0036"/>
  <outline>
    <contour>
      <point x="572" y="-11"/>
      <point x="681" y="47"/>
      <point x="681" y="157" type="curve" smooth="yes"/>
      <point x="681" y="259"/>
      <point x="568" y="313"/>
      <point x="404" y="313" type="curve" smooth="yes"/>
      <point x="272" y="313"/>
      <point x="171" y="281"/>
      <point x="100" y="247" type="curve"/>
      <point x="104" y="175" type="line"/>
      <point x="182" y="203"/>
      <point x="281" y="217"/>
      <point x="392" y="216" type="curve" smooth="yes"/>
      <point x="502" y="215"/>
      <point x="565" y="192"/>
      <point x="566" y="151" type="curve" smooth="yes"/>
      <point x="566" y="110"/>
      <point x="498" y="87"/>
      <point x="377" y="87" type="curve" smooth="yes"/>
      <point x="236" y="87"/>
      <point x="155" y="134"/>
      <point x="155" y="217" type="curve" smooth="yes"/>
      <point x="155" y="319"/>
      <point x="269" y="382"/>
      <point x="415" y="382" type="curve" smooth="yes"/>
      <point x="496" y="382"/>
      <point x="556" y="370"/>
      <point x="607" y="357" type="curve"/>
      <point x="639" y="448" type="line"/>
      <point x="584" y="464"/>
      <point x="522" y="478"/>
      <point x="409" y="478" type="curve" smooth="yes"/>
      <point x="203" y="478"/>
      <point x="42" y="373"/>
      <point x="42" y="217" type="curve" smooth="yes"/>
      <point x="42" y="73"/>
      <point x="163" y="-9"/>
      <point x="377" y="-10" type="curve" smooth="yes"/>
    </contour>
  </outline>
</glyph>
<glyph name="eight" format="1">
  <advance width="786"/>
  <unicode hex="0038"/>
  <outline>
    <contour>
      <point x="649" y="-10"/>
      <point x="735" y="69"/>
      <point x="735" y="148" type="curve" smooth="yes"/>
      <point x="735" y="225"/>
      <point x="628" y="285"/>
      <point x="401" y="287" type="curve" smooth="yes"/>
      <point x="255" y="288"/>
      <point x="187" y="283"/>
      <point x="187" y="327" type="curve" smooth="yes"/>
      <point x="187" y="366"/>
      <point x="266" y="385"/>
      <point x="394" y="385" type="curve" smooth="yes"/>
      <point x="541" y="385"/>
      <point x="614" y="363"/>
      <point x="614" y="317" type="curve" smooth="yes"/>
      <point x="614" y="265"/>
      <point x="543" y="247"/>
      <point x="472" y="220" type="curve"/>
      <point x="577" y="213" type="line"/>
      <point x="647" y="228"/>
      <point x="728" y="252"/>
      <point x="728" y="329" type="curve" smooth="yes"/>
      <point x="728" y="410"/>
      <point x="615" y="481"/>
      <point x="396" y="481" type="curve" smooth="yes"/>
      <point x="179" y="481"/>
      <point x="73" y="402"/>
      <point x="73" y="327" type="curve" smooth="yes"/>
      <point x="73" y="242"/>
      <point x="150" y="193"/>
      <point x="399" y="190" type="curve" smooth="yes"/>
      <point x="551" y="188"/>
      <point x="621" y="178"/>
      <point x="621" y="142" type="curve" smooth="yes"/>
      <point x="621" y="105"/>
      <point x="542" y="86"/>
      <point x="407" y="86" type="curve" smooth="yes"/>
      <point x="258" y="86"/>
      <point x="166" y="103"/>
      <point x="166" y="149" type="curve" smooth="yes"/>
      <point x="166" y="191"/>
      <point x="228" y="218"/>
      <point x="302" y="246" type="curve"/>
      <point x="193" y="253" type="line"/>
      <point x="120" y="237"/>
      <point x="52" y="204"/>
      <point x="52" y="137" type="curve" smooth="yes"/>
      <point x="52" y="55"/>
      <point x="159" y="-10"/>
      <point x="405" y="-10" type="curve" smooth="yes"/>
    </contour>
  </outline>
</glyph>
<glyph name="colon" format="1">
  <advance width="299"/>
  <unicode hex="003A"/>
  <outline>
    <contour>
      <point x="204" y="235"/>
      <point x="237" y="262"/>
      <point x="237" y="299" type="curve"/>
      <point x="237" y="338"/>
      <point x="204" y="365"/>
      <point x="150" y="365" type="curve"/>
      <point x="98" y="365"/>
      <point x="62" y="338"/>
      <point x="62" y="299" type="curve"/>
      <point x="62" y="262"/>
      <point x="98" y="235"/>
      <point x="150" y="235" type="curve"/>
    </contour>
    <contour>
      <point x="204" y="-10"/>
      <point x="237" y="17"/>
      <point x="237" y="54" type="curve"/>
      <point x="237" y="94"/>
      <point x="204" y="120"/>
      <point x="150" y="120" type="curve"/>
      <point x="98" y="120"/>
      <point x="62" y="94"/>
      <point x="62" y="54" type="curve"/>
      <point x="62" y="17"/>
      <point x="98" y="-10"/>
      <point x="150" y="-10" type="curve"/>
    </contour>
  </outline>
</glyph>
<glyph name="question" format="1">
  <advance width="455"/>
  <unicode hex="003F"/>
  <outline>
    <contour>
      <point x="227" y="-10"/>
      <point x="257" y="15"/>
      <point x="257" y="49" type="curve"/>
      <point x="257" y="86"/>
      <point x="227" y="110"/>
      <point x="176" y="110" type="curve"/>
      <point x="128" y="110"/>
      <point x="94" y="86"/>
      <point x="94" y="49" type="curve"/>
      <point x="94" y="15"/>
      <point x="128" y="-10"/>
      <point x="176" y="-10" type="curve"/>
    </contour>
    <contour>
      <point x="68" y="395" type="line"/>
      <point x="109" y="413"/>
      <point x="160" y="429"/>
      <point x="215" y="429" type="curve" smooth="yes"/>
      <point x="278" y="429"/>
      <point x="312" y="405"/>
      <point x="312" y="378" type="curve" smooth="yes"/>
      <point x="312" y="347"/>
      <point x="273" y="332"/>
      <point x="214" y="316" type="curve" smooth="yes"/>
      <point x="138" y="293"/>
      <point x="84" y="278"/>
      <point x="84" y="239" type="curve" smooth="yes"/>
      <point x="84" y="199"/>
      <point x="106" y="167"/>
      <point x="137" y="131" type="curve"/>
      <point x="173" y="144" type="line"/>
      <point x="170" y="156"/>
      <point x="165" y="167"/>
      <point x="165" y="183" type="curve" smooth="yes"/>
      <point x="165" y="206"/>
      <point x="204" y="211"/>
      <point x="291" y="244" type="curve" smooth="yes"/>
      <point x="369" y="272"/>
      <point x="440" y="313"/>
      <point x="440" y="382" type="curve" smooth="yes"/>
      <point x="440" y="471"/>
      <point x="350" y="529"/>
      <point x="225" y="529" type="curve" smooth="yes"/>
      <point x="150" y="529"/>
      <point x="88" y="512"/>
      <point x="35" y="488" type="curve"/>
    </contour>
  </outline>
</glyph>
<glyph name="A" format="1">
  <advance width="1019"/>
  <unicode hex="0041"/>
  <outline>
    <contour>
      <point x="217" y="13" type="line"/>
      <point x="537" y="463" type="line"/>
      <point x="483" y="463" type="line"/>
      <point x="802" y="13" type="line"/>
      <point x="941" y="13" type="line"/>
      <point x="595" y="461" type="line" smooth="yes"/>
      <point x="424" y="461" type="line"/>
      <point x="78" y="13" type="line"/>
    </contour>
    <contour>
      <point x="376" y="0" type="line"/>
      <point x="376" y="96" type="line"/>
      <point x="0" y="96" type="line"/>
      <point x="0" y="0" type="line"/>
    </contour>
    <contour>
      <point x="708" y="173" type="line"/>
      <point x="691" y="260" type="line"/>
      <point x="325" y="260" type="line"/>
      <point x="307" y="173" type="line"/>
    </contour>
    <contour>
      <point x="1019" y="0" type="line"/>
      <point x="1019" y="96" type="line"/>
      <point x="644" y="96" type="line"/>
      <point x="644" y="0" type="line"/>
    </contour>
    <contour>
      <point x="724" y="424" type="line"/>
      <point x="724" y="520" type="line"/>
      <point x="294" y="520" type="line"/>
      <point x="294" y="424" type="line"/>
    </contour>
    <contour>
      <point x="597" y="643" type="move" name="hook"/>
    </contour>
    <contour>
      <point x="1019" y="0" type="move" name="ogonek"/>
    </contour>
    <contour>
      <point x="511" y="520" type="move" name="top"/>
    </contour>
    <contour>
      <point x="514" y="0" type="move" name="bottom"/>
    </contour>
  </outline>
</glyph>
<glyph name="B" format="1">
  <advance width="968"/>
  <unicode hex="0042"/>
  <outline>
    <contour>
      <point x="702" y="0" type="line" smooth="yes"/>
      <point x="838" y="0"/>
      <point x="908" y="55"/>
      <point x="908" y="147" type="curve" smooth="yes"/>
      <point x="908" y="269"/>
      <point x="780" y="287"/>
      <point x="689" y="287" type="curve"/>
      <point x="690" y="240" type="line"/>
      <point x="757" y="240"/>
      <point x="867" y="277"/>
      <point x="867" y="379" type="curve" smooth="yes"/>
      <point x="867" y="460"/>
      <point x="807" y="520"/>
      <point x="685" y="520" type="curve" smooth="yes"/>
      <point x="51" y="520" type="line"/>
      <point x="51" y="424" type="line"/>
      <point x="679" y="424" type="line" smooth="yes"/>
      <point x="708" y="424"/>
      <point x="745" y="411"/>
      <point x="745" y="363" type="curve" smooth="yes"/>
      <point x="745" y="317"/>
      <point x="710" y="302"/>
      <point x="656" y="302" type="curve" smooth="yes"/>
      <point x="286" y="302" type="line"/>
      <point x="286" y="215" type="line"/>
      <point x="702" y="215" type="line" smooth="yes"/>
      <point x="759" y="216"/>
      <point x="786" y="197"/>
      <point x="786" y="157" type="curve" smooth="yes"/>
      <point x="786" y="113"/>
      <point x="751" y="96"/>
      <point x="693" y="96" type="curve" smooth="yes"/>
      <point x="51" y="96" type="line"/>
      <point x="51" y="0" type="line"/>
    </contour>
    <contour>
      <point x="328" y="53" type="line"/>
      <point x="328" y="464" type="line"/>
      <point x="205" y="464" type="line"/>
      <point x="205" y="53" type="line"/>
    </contour>
    <contour>
      <point x="452" y="557" type="move" name="top"/>
    </contour>
    <contour>
      <point x="452" y="0" type="move" name="bottom"/>
    </contour>
  </outline>
</glyph>
<glyph name="C" format="1">
  <advance width="888"/>
  <unicode hex="0043"/>
  <outline>
    <contour>
      <point x="614" y="-10"/>
      <point x="724" y="35"/>
      <point x="828" y="110" type="curve"/>
      <point x="781" y="197" type="line"/>
      <point x="692" y="134"/>
      <point x="585" y="90"/>
      <point x="434" y="90" type="curve" smooth="yes"/>
      <point x="292" y="90"/>
      <point x="173" y="154"/>
      <point x="173" y="260" type="curve" smooth="yes"/>
      <point x="173" y="376"/>
      <point x="302" y="435"/>
      <point x="445" y="435" type="curve" smooth="yes"/>
      <point x="563" y="435"/>
      <point x="668" y="393"/>
      <point x="745" y="316" type="curve"/>
      <point x="826" y="330" type="line"/>
      <point x="825" y="520" type="line"/>
      <point x="715" y="520" type="line"/>
      <point x="716" y="397" type="line"/>
      <point x="770" y="386" type="line"/>
      <point x="685" y="478"/>
      <point x="573" y="530"/>
      <point x="415" y="530" type="curve" smooth="yes"/>
      <point x="218" y="530"/>
      <point x="45" y="425"/>
      <point x="45" y="258" type="curve" smooth="yes"/>
      <point x="45" y="93"/>
      <point x="218" y="-10"/>
      <point x="434" y="-10" type="curve" smooth="yes"/>
    </contour>
    <contour>
      <point x="434" y="530" type="move" name="top"/>
    </contour>
    <contour>
      <point x="474" y="-10" type="move" name="bottom"/>
    </contour>
  </outline>
</glyph>
<glyph name="D" format="1">
  <advance width="985"/>
  <unicode hex="0044"/>
  <outline>
    <contour>
      <point x="577" y="0" type="line"/>
      <point x="753" y="0"/>
      <point x="940" y="59"/>
      <point x="940" y="260" type="curve"/>
      <point x="940" y="461"/>
      <point x="753" y="520"/>
      <point x="577" y="520" type="curve"/>
      <point x="51" y="520" type="line"/>
      <point x="51" y="424" type="line"/>
      <point x="558" y="424" type="line"/>
      <point x="667" y="424"/>
      <point x="812" y="418"/>
      <point x="812" y="260" type="curve"/>
      <point x="812" y="102"/>
      <point x="667" y="98"/>
      <point x="558" y="98" type="curve"/>
      <point x="51" y="98" type="line"/>
      <point x="51" y="0" type="line"/>
    </contour>
    <contour>
      <point x="328" y="56" type="line"/>
      <point x="328" y="464" type="line"/>
      <point x="205" y="464" type="line"/>
      <point x="205" y="56" type="line"/>
    </contour>
    <contour>
      <point x="497" y="263" type="move" name="center"/>
    </contour>
    <contour>
      <point x="497" y="0" type="move" name="bottom"/>
    </contour>
    <contour>
      <point x="497" y="557" type="move" name="top"/>
    </contour>
  </outline>
</glyph>
<glyph name="E" format="1">
  <advance width="987"/>
  <unicode hex="0045"/>
  <outline>
    <contour>
      <point x="887" y="0" type="line"/>
      <point x="887" y="210" type="line"/>
      <point x="779" y="210" type="line"/>
      <point x="779" y="96" type="line"/>
      <point x="51" y="96" type="line"/>
      <point x="51" y="0" type="line"/>
    </contour>
    <contour>
      <point x="326" y="53" type="line"/>
      <point x="326" y="458" type="line"/>
      <point x="204" y="458" type="line"/>
      <point x="204" y="53" type="line"/>
    </contour>
    <contour>
      <point x="584" y="209" type="line"/>
      <point x="584" y="299" type="line"/>
      <point x="248" y="299" type="line"/>
      <point x="248" y="209" type="line"/>
    </contour>
    <contour>
      <point x="624" y="146" type="line"/>
      <point x="624" y="362" type="line"/>
      <point x="528" y="362" type="line"/>
      <point x="528" y="146" type="line"/>
    </contour>
    <contour>
      <point x="887" y="310" type="line"/>
      <point x="887" y="520" type="line"/>
      <point x="51" y="520" type="line"/>
      <point x="51" y="424" type="line"/>
      <point x="779" y="424" type="line"/>
      <point x="779" y="310" type="line"/>
    </contour>
    <contour>
      <point x="887" y="0" type="move" name="ogonek"/>
    </contour>
    <contour>
      <point x="540" y="-2" type="move" name="bottom"/>
    </contour>
    <contour>
      <point x="544" y="520" type="move" name="top"/>
    </contour>
  </outline>
</glyph>
<glyph name="G" format="1">
  <advance width="902"/>
  <unicode hex="0047"/>
  <outline>
    <contour>
      <point x="700" y="-10"/>
      <point x="842" y="96"/>
      <point x="842" y="259" type="curve" smooth="yes"/>
      <point x="842" y="282" type="line"/>
      <point x="412" y="282" type="line"/>
      <point x="412" y="196" type="line"/>
      <point x="716" y="196" type="line"/>
      <point x="706" y="140"/>
      <point x="603" y="86"/>
      <point x="455" y="86" type="curve" smooth="yes"/>
      <point x="292" y="86"/>
      <point x="173" y="148"/>
      <point x="173" y="259" type="curve" smooth="yes"/>
      <point x="173" y="372"/>
      <point x="295" y="435"/>
      <point x="449" y="435" type="curve" smooth="yes"/>
      <point x="569" y="435"/>
      <point x="671" y="393"/>
      <point x="748" y="332" type="curve"/>
      <point x="828" y="347" type="line"/>
      <point x="828" y="520" type="line"/>
      <point x="718" y="520" type="line"/>
      <point x="718" y="402" type="line"/>
      <point x="776" y="385" type="line"/>
      <point x="688" y="484"/>
      <point x="567" y="530"/>
      <point x="417" y="530" type="curve" smooth="yes"/>
      <point x="209" y="530"/>
      <point x="45" y="425"/>
      <point x="45" y="259" type="curve" smooth="yes"/>
      <point x="45" y="94"/>
      <point x="218" y="-10"/>
      <point x="450" y="-10" type="curve" smooth="yes"/>
    </contour>
    <contour>
      <point x="461" y="530" type="move" name="top"/>
    </contour>
    <contour>
      <point x="461" y="-10" type="move" name="bottom"/>
    </contour>
  </outline>
</glyph>
<glyph name="I" format="1">
  <advance width="533"/>
  <unicode hex="0049"/>
  <outline>
    <contour>
      <point x="328" y="57" type="line"/>
      <point x="328" y="462" type="line"/>
      <point x="205" y="462" type="line"/>
      <point x="205" y="57" type="line"/>
    </contour>
    <contour>
      <point x="482" y="0" type="line"/>
      <point x="482" y="96" type="line"/>
      <point x="51" y="96" type="line"/>
      <point x="51" y="0" type="line"/>
    </contour>
    <contour>
      <point x="482" y="424" type="line"/>
      <point x="482" y="520" type="line"/>
      <point x="51" y="520" type="line"/>
      <point x="51" y="424" type="line"/>
    </contour>
    <contour>
      <point x="482" y="0" type="move" name="ogonek"/>
    </contour>
    <contour>
      <point x="267" y="0" type="move" name="bottom"/>
    </contour>
    <contour>
      <point x="268" y="520" type="move" name="top"/>
    </contour>
  </outline>
</glyph>
<glyph name="J" format="1">
  <advance width="638"/>
  <unicode hex="004A"/>
  <outline>
    <contour>
      <point x="399" y="-10"/>
      <point x="485" y="65"/>
      <point x="485" y="199" type="curve" smooth="yes"/>
      <point x="485" y="468" type="line"/>
      <point x="365" y="468" type="line"/>
      <point x="366" y="199" type="line" smooth="yes"/>
      <point x="366" y="124"/>
      <point x="326" y="92"/>
      <point x="267" y="92" type="curve" smooth="yes"/>
      <point x="201" y="92"/>
      <point x="139" y="141"/>
      <point x="98" y="179" type="curve"/>
      <point x="33" y="94" type="line"/>
      <point x="87" y="50"/>
      <point x="164" y="-10"/>
      <point x="268" y="-10" type="curve" smooth="yes"/>
    </contour>
    <contour>
      <point x="623" y="424" type="line"/>
      <point x="623" y="520" type="line"/>
      <point x="175" y="520" type="line"/>
      <point x="175" y="424" type="line"/>
    </contour>
    <contour>
      <point x="470" y="520" type="move" name="top"/>
    </contour>
    <contour>
      <point x="323" y="-12" type="move" name="bottom"/>
    </contour>
  </outline>
</glyph>
<glyph name="N" format="1">
  <advance width="1110"/>
  <unicode hex="004E"/>
  <outline>
    <contour>
      <point x="947" y="-4" type="line"/>
      <point x="947" y="507" type="line"/>
      <point x="835" y="507" type="line"/>
      <point x="835" y="177" type="line"/>
      <point x="323" y="520" type="line"/>
      <point x="103" y="520" type="line"/>
      <point x="881" y="-5" type="line"/>
    </contour>
    <contour>
      <point x="491" y="0" type="line"/>
      <point x="491" y="96" type="line"/>
      <point x="51" y="96" type="line"/>
      <point x="51" y="0" type="line"/>
    </contour>
    <contour>
      <point x="323" y="12" type="line"/>
      <point x="323" y="520" type="line"/>
      <point x="205" y="520" type="line"/>
      <point x="205" y="12" type="line"/>
    </contour>
    <contour>
      <point x="319" y="424" type="line"/>
      <point x="323" y="520" type="line"/>
      <point x="51" y="520" type="line"/>
      <point x="51" y="424" type="line"/>
    </contour>
    <contour>
      <point x="1101" y="424" type="line"/>
      <point x="1101" y="520" type="line"/>
      <point x="681" y="520" type="line"/>
      <point x="681" y="424" type="line"/>
    </contour>
    <contour>
      <point x="571" y="510" type="move" name="top"/>
    </contour>
    <contour>
      <point x="601" y="10" type="move" name="bottom"/>
    </contour>
  </outline>
</glyph>
<glyph name="P" format="1">
  <advance width="945"/>
  <unicode hex="0050"/>
  <outline>
    <contour>
      <point x="675" y="176" type="line" smooth="yes"/>
      <point x="806" y="176"/>
      <point x="905" y="239"/>
      <point x="905" y="348" type="curve" smooth="yes"/>
      <point x="905" y="459"/>
      <point x="806" y="520"/>
      <point x="675" y="520" type="curve" smooth="yes"/>
      <point x="51" y="520" type="line"/>
      <point x="51" y="424" type="line"/>
      <point x="670" y="424" type="line" smooth="yes"/>
      <point x="735" y="424"/>
      <point x="779" y="398"/>
      <point x="779" y="346" type="curve" smooth="yes"/>
      <point x="779" y="298"/>
      <point x="735" y="268"/>
      <point x="670" y="269" type="curve" smooth="yes"/>
      <point x="281" y="274" type="line"/>
      <point x="281" y="177" type="line"/>
    </contour>
    <contour>
      <point x="492" y="0" type="line"/>
      <point x="492" y="96" type="line"/>
      <point x="51" y="96" type="line"/>
      <point x="51" y="0" type="line"/>
    </contour>
    <contour>
      <point x="328" y="53" type="line"/>
      <point x="328" y="468" type="line"/>
      <point x="205" y="468" type="line"/>
      <point x="205" y="53" type="line"/>
    </contour>
    <contour>
      <point x="475" y="557" type="move" name="top"/>
    </contour>
    <contour>
      <point x="475" y="0" type="move" name="bottom"/>
    </contour>
  </outline>
</glyph>
<glyph name="Q" format="1">
  <advance width="922"/>
  <unicode hex="0051"/>
  <outline>
    <contour>
      <point x="700" y="-10"/>
      <point x="872" y="109"/>
      <point x="872" y="260" type="curve"/>
      <point x="872" y="410"/>
      <point x="700" y="530"/>
      <point x="459" y="530" type="curve"/>
      <point x="218" y="530"/>
      <point x="45" y="410"/>
      <point x="45" y="260" type="curve"/>
      <point x="45" y="109"/>
      <point x="218" y="-10"/>
      <point x="459" y="-10" type="curve"/>
    </contour>
    <contour>
      <point x="836" y="-160"/>
      <point x="905" y="-99"/>
      <point x="922" y="-20" type="curve"/>
      <point x="835" y="8" type="line"/>
      <point x="824" y="-41"/>
      <point x="783" y="-64"/>
      <point x="736" y="-64" type="curve" smooth="yes"/>
      <point x="684" y="-64"/>
      <point x="640" y="-22"/>
      <point x="602" y="28" type="curve" smooth="yes"/>
      <point x="542" y="107" type="line" smooth="yes"/>
      <point x="450" y="228"/>
      <point x="385" y="285"/>
      <point x="231" y="285" type="curve" smooth="yes"/>
      <point x="149" y="285" type="line"/>
      <point x="149" y="198" type="line"/>
      <point x="231" y="198" type="line" smooth="yes"/>
      <point x="346" y="198"/>
      <point x="387" y="134"/>
      <point x="441" y="65" type="curve" smooth="yes"/>
      <point x="494" y="-2" type="line" smooth="yes"/>
      <point x="560" y="-86"/>
      <point x="626" y="-160"/>
      <point x="736" y="-160" type="curve" smooth="yes"/>
    </contour>
    <contour>
      <point x="280" y="80"/>
      <point x="171" y="161"/>
      <point x="171" y="260" type="curve"/>
      <point x="171" y="358"/>
      <point x="280" y="440"/>
      <point x="458" y="440" type="curve"/>
      <point x="636" y="440"/>
      <point x="745" y="359"/>
      <point x="745" y="260" type="curve"/>
      <point x="745" y="162"/>
      <point x="636" y="80"/>
      <point x="458" y="80" type="curve"/>
    </contour>
    <contour>
      <point x="457" y="530" type="move" name="top"/>
    </contour>
    <contour>
      <point x="457" y="-10" type="move" name="bottom"/>
    </contour>
  </outline>
</glyph>
<glyph name="R" format="1">
  <advance width="1059"/>
  <unicode hex="0052"/>
  <outline>
    <contour>
      <point x="722" y="217" type="line" smooth="yes"/>
      <point x="849" y="217"/>
      <point x="929" y="272"/>
      <point x="929" y="369" type="curve" smooth="yes"/>
      <point x="929" y="466"/>
      <point x="846" y="520"/>
      <point x="712" y="520" type="curve" smooth="yes"/>
      <point x="51" y="520" type="line"/>
      <point x="51" y="424" type="line"/>
      <point x="715" y="424" type="line" smooth="yes"/>
      <point x="774" y="424"/>
      <point x="807" y="404"/>
      <point x="807" y="369" type="curve" smooth="yes"/>
      <point x="807" y="329"/>
      <point x="774" y="307"/>
      <point x="715" y="307" type="curve" smooth="yes"/>
      <point x="285" y="307" type="line"/>
      <point x="285" y="217" type="line"/>
    </contour>
    <contour>
      <point x="477" y="0" type="line"/>
      <point x="477" y="96" type="line"/>
      <point x="51" y="97" type="line"/>
      <point x="51" y="0" type="line"/>
    </contour>
    <contour>
      <point x="328" y="53" type="line"/>
      <point x="328" y="464" type="line"/>
      <point x="205" y="464" type="line"/>
      <point x="205" y="53" type="line"/>
    </contour>
    <contour>
      <point x="953" y="-11"/>
      <point x="1039" y="73"/>
      <point x="1039" y="184" type="curve" smooth="yes"/>
      <point x="1039" y="211" type="line"/>
      <point x="934" y="211" type="line"/>
      <point x="934" y="182" type="line" smooth="yes"/>
      <point x="934" y="127"/>
      <point x="893" y="91"/>
      <point x="848" y="91" type="curve" smooth="yes"/>
      <point x="798" y="91"/>
      <point x="770" y="110"/>
      <point x="725" y="155" type="curve" smooth="yes"/>
      <point x="662" y="219"/>
      <point x="621" y="235"/>
      <point x="545" y="235" type="curve" smooth="yes"/>
      <point x="322" y="235" type="line"/>
      <point x="322" y="217" type="line"/>
      <point x="435" y="217" type="line" smooth="yes"/>
      <point x="542" y="217"/>
      <point x="566" y="182"/>
      <point x="615" y="125" type="curve" smooth="yes"/>
      <point x="666" y="65"/>
      <point x="736" y="-11"/>
      <point x="848" y="-11" type="curve" smooth="yes"/>
    </contour>
    <contour>
      <point x="549" y="520" type="move" name="top"/>
    </contour>
    <contour>
      <point x="589" y="0" type="move" name="bottom"/>
    </contour>
  </outline>
</glyph>
<glyph name="T" format="1">
  <advance width="896"/>
  <unicode hex="0054"/>
  <outline>
    <contour>
      <point x="156" y="310" type="line"/>
      <point x="156" y="424" type="line"/>
      <point x="740" y="424" type="line"/>
      <point x="740" y="310" type="line"/>
      <point x="848" y="310" type="line"/>
      <point x="848" y="520" type="line"/>
      <point x="48" y="520" type="line"/>
      <point x="48" y="310" type="line"/>
    </contour>
    <contour>
      <point x="666" y="0" type="line"/>
      <point x="666" y="96" type="line"/>
      <point x="229" y="96" type="line"/>
      <point x="229" y="0" type="line"/>
    </contour>
    <contour>
      <point x="509" y="62" type="line"/>
      <point x="509" y="467" type="line"/>
      <point x="387" y="467" type="line"/>
      <point x="387" y="62" type="line"/>
    </contour>
    <contour>
      <point x="452" y="245" type="move" name="center"/>
    </contour>
    <contour>
      <point x="452" y="0" type="move" name="bottom"/>
    </contour>
    <contour>
      <point x="452" y="557" type="move" name="top"/>
    </contour>
  </outline>
</glyph>
<glyph name="U" format="1">
  <advance width="1029"/>
  <unicode hex="0055"/>
  <outline>
    <contour>
      <point x="709" y="-10"/>
      <point x="861" y="79"/>
      <point x="861" y="266" type="curve" smooth="yes"/>
      <point x="861" y="468" type="line"/>
      <point x="743" y="468" type="line"/>
      <point x="742" y="268" type="line" smooth="yes"/>
      <point x="740" y="140"/>
      <point x="643" y="91"/>
      <point x="515" y="91" type="curve" smooth="yes"/>
      <point x="386" y="91"/>
      <point x="293" y="139"/>
      <point x="291" y="266" type="curve" smooth="yes"/>
      <point x="289" y="468" type="line"/>
      <point x="169" y="468" type="line"/>
      <point x="169" y="266" type="line" smooth="yes"/>
      <point x="169" y="79"/>
      <point x="315" y="-10"/>
      <point x="515" y="-10" type="curve" smooth="yes"/>
    </contour>
    <contour>
      <point x="438" y="424" type="line"/>
      <point x="438" y="520" type="line"/>
      <point x="15" y="520" type="line"/>
      <point x="15" y="424" type="line"/>
    </contour>
    <contour>
      <point x="1014" y="424" type="line"/>
      <point x="1014" y="520" type="line"/>
      <point x="594" y="520" type="line"/>
      <point x="594" y="424" type="line"/>
    </contour>
    <contour>
      <point x="561" y="-8" type="move" name="ogonek"/>
    </contour>
    <contour>
      <point x="511" y="510" type="move" name="top"/>
    </contour>
    <contour>
      <point x="1006" y="490" type="move" name="topright"/>
    </contour>
    <contour>
      <point x="515" y="-10" type="move" name="bottom"/>
    </contour>
  </outline>
</glyph>
<glyph name="W" format="1">
  <advance width="1288"/>
  <unicode hex="0057"/>
  <outline>
    <contour>
      <point x="453" y="-10" type="line"/>
      <point x="791" y="507" type="line"/>
      <point x="676" y="507" type="line"/>
      <point x="439" y="127" type="line"/>
      <point x="214" y="507" type="line"/>
      <point x="72" y="507" type="line"/>
      <point x="389" y="-10" type="line"/>
    </contour>
    <contour>
      <point x="347" y="424" type="line"/>
      <point x="347" y="520" type="line"/>
      <point x="0" y="520" type="line"/>
      <point x="0" y="424" type="line"/>
    </contour>
    <contour>
      <point x="873" y="-10" type="line"/>
      <point x="1205" y="507" type="line"/>
      <point x="1093" y="507" type="line"/>
      <point x="862" y="127" type="line"/>
      <point x="621" y="505" type="line"/>
      <point x="523" y="434" type="line"/>
      <point x="810" y="-10" type="line"/>
    </contour>
    <contour>
      <point x="825" y="424" type="line"/>
      <point x="825" y="520" type="line"/>
      <point x="464" y="520" type="line"/>
      <point x="464" y="424" type="line"/>
    </contour>
    <contour>
      <point x="1288" y="424" type="line"/>
      <point x="1288" y="520" type="line"/>
      <point x="928" y="520" type="line"/>
      <point x="928" y="424" type="line"/>
    </contour>
    <contour>
      <point x="642" y="520" type="move" name="top"/>
    </contour>
    <contour>
      <point x="637" y="0" type="move" name="bottom"/>
    </contour>
  </outline>
</glyph>
<glyph name="Y" format="1">
  <advance width="883"/>
  <unicode hex="0059"/>
  <outline>
    <contour>
      <point x="472" y="174" type="line"/>
      <point x="769" y="447" type="line"/>
      <point x="644" y="447" type="line"/>
      <point x="454" y="269" type="line"/>
      <point x="259" y="444" type="line"/>
      <point x="102" y="444" type="line"/>
      <point x="410" y="174" type="line"/>
    </contour>
    <contour>
      <point x="654" y="0" type="line"/>
      <point x="654" y="96" type="line"/>
      <point x="230" y="96" type="line"/>
      <point x="230" y="0" type="line"/>
    </contour>
    <contour>
      <point x="504" y="50" type="line"/>
      <point x="504" y="250" type="line"/>
      <point x="380" y="250" type="line"/>
      <point x="380" y="50" type="line"/>
    </contour>
    <contour>
      <point x="349" y="424" type="line"/>
      <point x="349" y="520" type="line"/>
      <point x="15" y="520" type="line"/>
      <point x="15" y="424" type="line"/>
    </contour>
    <contour>
      <point x="868" y="424" type="line"/>
      <point x="868" y="520" type="line"/>
      <point x="534" y="520" type="line"/>
      <point x="534" y="424" type="line"/>
    </contour>
    <contour>
      <point x="444" y="510" type="move" name="top"/>
    </contour>
    <contour>
      <point x="444" y="0" type="move" name="bottom"/>
    </contour>
  </outline>
</glyph>
<glyph name="bracketright" format="1">
  <advance width="401"/>
  <unicode hex="005D"/>
  <outline>
    <contour>
      <point x="270" y="-131" type="line"/>
      <point x="270" y="649" type="line"/>
      <point x="166" y="649" type="line"/>
      <point x="166" y="-131" type="line"/>
    </contour>
    <contour>
      <point x="238" y="-131" type="line"/>
      <point x="238" y="-35" type="line"/>
      <point x="-16" y="-35" type="line"/>
      <point x="-16" y="-131" type="line"/>
    </contour>
    <contour>
      <point x="238" y="553" type="line"/>
      <point x="238" y="649" type="line"/>
      <point x="-16" y="649" type="line"/>
      <point x="-16" y="553" type="line"/>
    </contour>
  </outline>
</glyph>
<glyph name="asciicircum" format="1">
  <advance width="445"/>
  <unicode hex="005E"/>
  <outline>
    <contour>
      <point x="201" y="616" type="line"/>
      <point x="182" y="603" type="line"/>
      <point x="331" y="325" type="line"/>
      <point x="443" y="325" type="line"/>
      <point x="265" y="616" type="line"/>
    </contour>
    <contour>
      <point x="189" y="616" type="line"/>
      <point x="1" y="325" type="line"/>
      <point x="114" y="325" type="line"/>
      <point x="272" y="603" type="line"/>
      <point x="254" y="616" type="line"/>
    </contour>
  </outline>
</glyph>
<glyph name="b" format="1">
  <advance width="863"/>
  <unicode hex="0062"/>
  <outline>
    <contour>
      <point x="683" y="-11"/>
      <point x="813" y="64"/>
      <point x="813" y="188" type="curve" smooth="yes"/>
      <point x="813" y="306"/>
      <point x="708" y="367"/>
      <point x="565" y="367" type="curve" smooth="yes"/>
      <point x="410" y="367"/>
      <point x="288" y="295"/>
      <point x="171" y="217" type="curve"/>
      <point x="171" y="138" type="line"/>
      <point x="299" y="221"/>
      <point x="440" y="270"/>
      <point x="544" y="270" type="curve" smooth="yes"/>
      <point x="640" y="270"/>
      <point x="693" y="238"/>
      <point x="693" y="182" type="curve" smooth="yes"/>
      <point x="693" y="125"/>
      <point x="624" y="84"/>
      <point x="512" y="84" type="curve" smooth="yes"/>
      <point x="397" y="84"/>
      <point x="263" y="108"/>
      <point x="177" y="145" type="curve"/>
      <point x="177" y="69" type="line"/>
      <point x="257" y="33"/>
      <point x="377" y="-11"/>
      <point x="528" y="-11" type="curve" smooth="yes"/>
    </contour>
    <contour>
      <point x="237" y="-24" type="line"/>
      <point x="237" y="521" type="line"/>
      <point x="120" y="521" type="line"/>
      <point x="120" y="-24" type="line"/>
    </contour>
    <contour>
      <point x="218" y="430" type="line"/>
      <point x="218" y="520" type="line"/>
      <point x="-20" y="520" type="line"/>
      <point x="-20" y="430" type="line"/>
    </contour>
    <contour>
      <point x="469" y="355" type="move" name="top"/>
    </contour>
    <contour>
      <point x="469" y="-22" type="move" name="bottom"/>
    </contour>
  </outline>
</glyph>
<glyph name="c" format="1">
  <advance width="730"/>
  <unicode hex="0063"/>
  <outline>
    <contour>
      <point x="474" y="-8"/>
      <point x="580" y="14"/>
      <point x="672" y="66" type="curve"/>
      <point x="631" y="149" type="line"/>
      <point x="550" y="110"/>
      <point x="460" y="91"/>
      <point x="358" y="91" type="curve" smooth="yes"/>
      <point x="240" y="91"/>
      <point x="170" y="129"/>
      <point x="170" y="177" type="curve" smooth="yes"/>
      <point x="170" y="251"/>
      <point x="283" y="271"/>
      <point x="372" y="271" type="curve" smooth="yes"/>
      <point x="461" y="271"/>
      <point x="551" y="252"/>
      <point x="610" y="213" type="curve"/>
      <point x="655" y="230" type="line"/>
      <point x="655" y="357" type="line"/>
      <point x="576" y="357" type="line"/>
      <point x="576" y="274" type="line"/>
      <point x="617" y="277" type="line"/>
      <point x="566" y="319"/>
      <point x="477" y="368"/>
      <point x="344" y="367" type="curve" smooth="yes"/>
      <point x="218" y="366"/>
      <point x="50" y="310"/>
      <point x="50" y="177" type="curve" smooth="yes"/>
      <point x="50" y="73"/>
      <point x="173" y="-13"/>
      <point x="358" y="-10" type="curve" smooth="yes"/>
    </contour>
    <contour>
      <point x="373" y="367" type="move" name="top"/>
    </contour>
    <contour>
      <point x="398" y="-10" type="move" name="bottom"/>
    </contour>
  </outline>
</glyph>
<glyph name="g" format="1">
  <advance width="726"/>
  <unicode hex="0067"/>
  <outline>
    <contour>
      <point x="557" y="-173"/>
      <point x="688" y="-119"/>
      <point x="688" y="-24" type="curve" smooth="yes"/>
      <point x="688" y="45"/>
      <point x="634" y="84"/>
      <point x="539" y="84" type="curve" smooth="yes"/>
      <point x="448" y="84"/>
      <point x="382" y="74"/>
      <point x="297" y="74" type="curve" smooth="yes"/>
      <point x="206" y="74"/>
      <point x="155" y="89"/>
      <point x="155" y="115" type="curve" smooth="yes"/>
      <point x="155" y="143"/>
      <point x="201" y="155"/>
      <point x="215" y="158" type="curve"/>
      <point x="167" y="189" type="line"/>
      <point x="106" y="180"/>
      <point x="58" y="137"/>
      <point x="58" y="91" type="curve" smooth="yes"/>
      <point x="58" y="24"/>
      <point x="135" y="-14"/>
      <point x="271" y="-14" type="curve" smooth="yes"/>
      <point x="372" y="-14"/>
      <point x="461" y="-4"/>
      <point x="529" y="-4" type="curve" smooth="yes"/>
      <point x="565" y="-4"/>
      <point x="585" y="-14"/>
      <point x="585" y="-31" type="curve" smooth="yes"/>
      <point x="585" y="-63"/>
      <point x="495" y="-81"/>
      <point x="350" y="-81" type="curve" smooth="yes"/>
      <point x="211" y="-81"/>
      <point x="142" y="-61"/>
      <point x="142" y="-25" type="curve" smooth="yes"/>
      <point x="142" y="-6"/>
      <point x="151" y="10"/>
      <point x="168" y="19" type="curve"/>
      <point x="112" y="43" type="line"/>
      <point x="69" y="18"/>
      <point x="45" y="-15"/>
      <point x="45" y="-50" type="curve" smooth="yes"/>
      <point x="45" y="-129"/>
      <point x="145" y="-173"/>
      <point x="339" y="-173" type="curve" smooth="yes"/>
    </contour>
    <contour>
      <point x="505" y="110"/>
      <point x="643" y="145"/>
      <point x="643" y="238" type="curve" smooth="yes"/>
      <point x="643" y="329"/>
      <point x="524" y="367"/>
      <point x="365" y="367" type="curve" smooth="yes"/>
      <point x="214" y="367"/>
      <point x="89" y="329"/>
      <point x="89" y="238" type="curve" smooth="yes"/>
      <point x="89" y="147"/>
      <point x="209" y="106"/>
      <point x="365" y="108" type="curve" smooth="yes"/>
    </contour>
    <contour>
      <point x="267" y="187"/>
      <point x="201" y="202"/>
      <point x="201" y="238" type="curve" smooth="yes"/>
      <point x="201" y="277"/>
      <point x="266" y="288"/>
      <point x="366" y="288" type="curve" smooth="yes"/>
      <point x="467" y="288"/>
      <point x="533" y="276"/>
      <point x="533" y="238" type="curve" smooth="yes"/>
      <point x="533" y="201"/>
      <point x="466" y="187"/>
      <point x="366" y="187" type="curve" smooth="yes"/>
    </contour>
    <contour>
      <point x="587" y="348"/>
      <point x="633" y="367"/>
      <point x="696" y="366" type="curve"/>
      <point x="696" y="464" type="line"/>
      <point x="625" y="461"/>
      <point x="539" y="425"/>
      <point x="531" y="325" type="curve"/>
      <point x="575" y="285" type="line"/>
    </contour>
    <contour>
      <point x="364" y="347" type="move" name="top"/>
    </contour>
    <contour>
      <point x="366" y="-156" type="move" name="bottom"/>
    </contour>
  </outline>
</glyph>
<glyph name="j" format="1">
  <advance width="413"/>
  <unicode hex="006A"/>
  <outline>
    <contour>
      <point x="228" y="-180"/>
      <point x="310" y="-102"/>
      <point x="310" y="49" type="curve" smooth="yes"/>
      <point x="310" y="357" type="line"/>
      <point x="197" y="357" type="line"/>
      <point x="197" y="47" type="line" smooth="yes"/>
      <point x="197" y="-35"/>
      <point x="164" y="-79"/>
      <point x="112" y="-79" type="curve" smooth="yes"/>
      <point x="78" y="-79"/>
      <point x="39" y="-69"/>
      <point x="8" y="-57" type="curve"/>
      <point x="-20" y="-152" type="line"/>
      <point x="10" y="-164"/>
      <point x="57" y="-180"/>
      <point x="117" y="-180" type="curve" smooth="yes"/>
    </contour>
    <contour>
      <point x="280" y="267" type="line"/>
      <point x="280" y="357" type="line"/>
      <point x="57" y="357" type="line"/>
      <point x="57" y="267" type="line"/>
    </contour>
    <contour>
      <point x="301" y="412"/>
      <point x="332" y="437"/>
      <point x="332" y="470" type="curve"/>
      <point x="332" y="505"/>
      <point x="301" y="530"/>
      <point x="250" y="530" type="curve"/>
      <point x="201" y="530"/>
      <point x="167" y="505"/>
      <point x="167" y="470" type="curve"/>
      <point x="167" y="437"/>
      <point x="201" y="412"/>
      <point x="250" y="412" type="curve"/>
    </contour>
    <contour>
      <point x="201" y="357" type="move" name="top"/>
    </contour>
    <contour>
      <point x="201" y="0" type="move" name="bottom"/>
    </contour>
  </outline>
</glyph>
<glyph name="k" format="1">
  <advance width="885"/>
  <unicode hex="006B"/>
  <outline>
    <contour>
      <point x="650" y="133"/>
      <point x="780" y="166"/>
      <point x="781" y="261" type="curve" smooth="yes"/>
      <point x="782" y="338"/>
      <point x="712" y="373"/>
      <point x="603" y="373" type="curve" smooth="yes"/>
      <point x="498" y="373"/>
      <point x="383" y="338"/>
      <point x="265" y="292" type="curve"/>
      <point x="263" y="224" type="line"/>
      <point x="385" y="262"/>
      <point x="515" y="282"/>
      <point x="574" y="282" type="curve" smooth="yes"/>
      <point x="632" y="282"/>
      <point x="653" y="274"/>
      <point x="653" y="252" type="curve" smooth="yes"/>
      <point x="653" y="226"/>
      <point x="603" y="210"/>
      <point x="503" y="210" type="curve" smooth="yes"/>
      <point x="425" y="210"/>
      <point x="338" y="214"/>
      <point x="262" y="224" type="curve"/>
      <point x="260" y="159" type="line"/>
      <point x="333" y="146"/>
      <point x="393" y="133"/>
      <point x="525" y="133" type="curve" smooth="yes"/>
    </contour>
    <contour>
      <point x="395" y="0" type="line"/>
      <point x="395" y="90" type="line"/>
      <point x="30" y="90" type="line"/>
      <point x="30" y="0" type="line"/>
    </contour>
    <contour>
      <point x="282" y="30" type="line"/>
      <point x="282" y="520" type="line"/>
      <point x="170" y="520" type="line"/>
      <point x="170" y="30" type="line"/>
    </contour>
    <contour>
      <point x="786" y="-21"/>
      <point x="842" y="24"/>
      <point x="865" y="90" type="curve"/>
      <point x="787" y="137" type="line"/>
      <point x="772" y="102"/>
      <point x="739" y="79"/>
      <point x="693" y="79" type="curve" smooth="yes"/>
      <point x="637" y="79"/>
      <point x="601" y="100"/>
      <point x="552" y="151" type="curve"/>
      <point x="451" y="151" type="line"/>
      <point x="520" y="38"/>
      <point x="606" y="-21"/>
      <point x="696" y="-21" type="curve" smooth="yes"/>
    </contour>
    <contour>
      <point x="273" y="430" type="line"/>
      <point x="273" y="520" type="line"/>
      <point x="30" y="520" type="line"/>
      <point x="30" y="430" type="line"/>
    </contour>
    <contour>
      <point x="482" y="343" type="move" name="top"/>
    </contour>
    <contour>
      <point x="482" y="0" type="move" name="bottom"/>
    </contour>
  </outline>
</glyph>
<glyph name="m" format="1">
  <advance width="1269"/>
  <unicode hex="006D"/>
  <outline>
    <contour>
      <point x="283" y="267" type="line"/>
      <point x="283" y="357" type="line"/>
      <point x="66" y="357" type="line"/>
      <point x="66" y="267" type="line"/>
    </contour>
    <contour>
      <point x="321" y="30" type="line"/>
      <point x="321" y="357" type="line"/>
      <point x="206" y="357" type="line"/>
      <point x="206" y="30" type="line"/>
    </contour>
    <contour>
      <point x="434" y="0" type="line"/>
      <point x="434" y="90" type="line"/>
      <point x="66" y="90" type="line"/>
      <point x="66" y="0" type="line"/>
    </contour>
    <contour>
      <point x="725" y="30" type="line"/>
      <point x="725" y="151" type="line" smooth="yes"/>
      <point x="725" y="260"/>
      <point x="679" y="366"/>
      <point x="535" y="366" type="curve" smooth="yes"/>
      <point x="423" y="366"/>
      <point x="331" y="278"/>
      <point x="282" y="184" type="curve"/>
      <point x="282" y="94" type="line"/>
      <point x="344" y="190"/>
      <point x="430" y="268"/>
      <point x="517" y="268" type="curve" smooth="yes"/>
      <point x="577" y="268"/>
      <point x="610" y="228"/>
      <point x="610" y="156" type="curve" smooth="yes"/>
      <point x="610" y="30" type="line"/>
    </contour>
    <contour>
      <point x="838" y="0" type="line"/>
      <point x="838" y="90" type="line"/>
      <point x="497" y="90" type="line"/>
      <point x="497" y="0" type="line"/>
    </contour>
    <contour>
      <point x="1129" y="30" type="line"/>
      <point x="1129" y="151" type="line" smooth="yes"/>
      <point x="1129" y="260"/>
      <point x="1082" y="366"/>
      <point x="938" y="366" type="curve" smooth="yes"/>
      <point x="826" y="366"/>
      <point x="734" y="278"/>
      <point x="685" y="184" type="curve"/>
      <point x="685" y="94" type="line"/>
      <point x="747" y="190"/>
      <point x="833" y="268"/>
      <point x="920" y="268" type="curve" smooth="yes"/>
      <point x="980" y="268"/>
      <point x="1013" y="228"/>
      <point x="1013" y="156" type="curve" smooth="yes"/>
      <point x="1013" y="30" type="line"/>
    </contour>
    <contour>
      <point x="1259" y="0" type="line"/>
      <point x="1259" y="90" type="line"/>
      <point x="900" y="90" type="line"/>
      <point x="900" y="0" type="line"/>
    </contour>
    <contour>
      <point x="726" y="343" type="move" name="top"/>
    </contour>
    <contour>
      <point x="726" y="0" type="move" name="bottom"/>
    </contour>
  </outline>
</glyph>
<glyph name="n" format="1">
  <advance width="972"/>
  <unicode hex="006E"/>
  <outline>
    <contour>
      <point x="832" y="0" type="line"/>
      <point x="832" y="120" type="line" smooth="yes"/>
      <point x="832" y="239"/>
      <point x="782" y="366"/>
      <point x="604" y="366" type="curve" smooth="yes"/>
      <point x="470" y="366"/>
      <point x="361" y="269"/>
      <point x="281" y="184" type="curve"/>
      <point x="281" y="94" type="line"/>
      <point x="343" y="162"/>
      <point x="459" y="263"/>
      <point x="581" y="263" type="curve" smooth="yes"/>
      <point x="691" y="263"/>
      <point x="717" y="196"/>
      <point x="717" y="130" type="curve" smooth="yes"/>
      <point x="717" y="0" type="line"/>
    </contour>
    <contour>
      <point x="434" y="0" type="line"/>
      <point x="434" y="90" type="line"/>
      <point x="66" y="90" type="line"/>
      <point x="66" y="0" type="line"/>
    </contour>
    <contour>
      <point x="321" y="0" type="line"/>
      <point x="321" y="357" type="line"/>
      <point x="206" y="357" type="line"/>
      <point x="206" y="0" type="line"/>
    </contour>
    <contour>
      <point x="293" y="267" type="line"/>
      <point x="293" y="357" type="line"/>
      <point x="66" y="357" type="line"/>
      <point x="66" y="267" type="line"/>
    </contour>
    <contour>
      <point x="962" y="0" type="line"/>
      <point x="962" y="90" type="line"/>
      <point x="604" y="90" type="line"/>
      <point x="604" y="0" type="line"/>
    </contour>
    <contour>
      <point x="548" y="367" type="move" name="top"/>
    </contour>
    <contour>
      <point x="508" y="0" type="move" name="bottom"/>
    </contour>
  </outline>
</glyph>
<glyph name="o" format="1">
  <advance width="781"/>
  <unicode hex="006F"/>
  <outline>
    <contour>
      <point x="577" y="-11"/>
      <point x="731" y="60"/>
      <point x="731" y="179" type="curve"/>
      <point x="731" y="302"/>
      <point x="569" y="368"/>
      <point x="390" y="367" type="curve"/>
      <point x="208" y="367"/>
      <point x="50" y="302"/>
      <point x="50" y="179" type="curve"/>
      <point x="50" y="60"/>
      <point x="208" y="-11"/>
      <point x="390" y="-10" type="curve"/>
    </contour>
    <contour>
      <point x="271" y="80"/>
      <point x="171" y="113"/>
      <point x="171" y="179" type="curve"/>
      <point x="171" y="248"/>
      <point x="271" y="276"/>
      <point x="390" y="277" type="curve"/>
      <point x="511" y="277"/>
      <point x="610" y="248"/>
      <point x="610" y="179" type="curve"/>
      <point x="610" y="113"/>
      <point x="511" y="80"/>
      <point x="390" y="80" type="curve"/>
    </contour>
    <contour>
      <point x="391" y="-10" type="move" name="bottom"/>
    </contour>
    <contour>
      <point x="411" y="-11" type="move" name="ogonek"/>
    </contour>
    <contour>
      <point x="390" y="367" type="move" name="top"/>
    </contour>
    <contour>
      <point x="731" y="357" type="move" name="topright"/>
    </contour>
    <contour>
      <point x="390" y="179" type="move" name="center"/>
    </contour>
  </outline>
</glyph>
<glyph name="q" format="1">
  <advance width="904"/>
  <unicode hex="0071"/>
  <outline>
    <contour>
      <point x="453" y="-12"/>
      <point x="575" y="60"/>
      <point x="692" y="138" type="curve"/>
      <point x="692" y="217" type="line"/>
      <point x="564" y="134"/>
      <point x="423" y="85"/>
      <point x="319" y="85" type="curve" smooth="yes"/>
      <point x="223" y="85"/>
      <point x="170" y="117"/>
      <point x="170" y="173" type="curve" smooth="yes"/>
      <point x="170" y="230"/>
      <point x="239" y="271"/>
      <point x="351" y="271" type="curve" smooth="yes"/>
      <point x="525" y="271"/>
      <point x="736" y="184"/>
      <point x="852" y="116" type="curve"/>
      <point x="852" y="228" type="line"/>
      <point x="730" y="293"/>
      <point x="541" y="367"/>
      <point x="335" y="366" type="curve" smooth="yes"/>
      <point x="180" y="365"/>
      <point x="50" y="291"/>
      <point x="50" y="167" type="curve" smooth="yes"/>
      <point x="50" y="49"/>
      <point x="155" y="-12"/>
      <point x="298" y="-12" type="curve" smooth="yes"/>
    </contour>
    <contour>
      <point x="883" y="-165" type="line"/>
      <point x="883" y="-75" type="line"/>
      <point x="496" y="-75" type="line"/>
      <point x="496" y="-165" type="line"/>
    </contour>
    <contour>
      <point x="743" y="-158" type="line"/>
      <point x="743" y="387" type="line"/>
      <point x="626" y="364" type="line"/>
      <point x="626" y="-158" type="line"/>
    </contour>
    <contour>
      <point x="334" y="179" type="move" name="center"/>
    </contour>
    <contour>
      <point x="332" y="2" type="move" name="bottom"/>
    </contour>
    <contour>
      <point x="332" y="343" type="move" name="top"/>
    </contour>
  </outline>
</glyph>
<glyph name="r" format="1">
  <advance width="789"/>
  <unicode hex="0072"/>
  <outline>
    <contour>
      <point x="389" y="198"/>
      <point x="514" y="254"/>
      <point x="596" y="251" type="curve"/>
      <point x="596" y="178" type="line"/>
      <point x="695" y="178" type="line"/>
      <point x="695" y="365" type="line"/>
      <point x="644" y="366" type="line" smooth="yes"/>
      <point x="518" y="366"/>
      <point x="383" y="288"/>
      <point x="268" y="179" type="curve"/>
      <point x="268" y="93" type="line"/>
    </contour>
    <contour>
      <point x="451" y="0" type="line"/>
      <point x="451" y="90" type="line"/>
      <point x="66" y="90" type="line"/>
      <point x="66" y="0" type="line"/>
    </contour>
    <contour>
      <point x="321" y="30" type="line"/>
      <point x="321" y="357" type="line"/>
      <point x="206" y="357" type="line"/>
      <point x="206" y="30" type="line"/>
    </contour>
    <contour>
      <point x="313" y="267" type="line"/>
      <point x="313" y="357" type="line"/>
      <point x="66" y="357" type="line"/>
      <point x="66" y="267" type="line"/>
    </contour>
    <contour>
      <point x="411" y="357" type="move" name="top"/>
    </contour>
    <contour>
      <point x="411" y="0" type="move" name="bottom"/>
    </contour>
  </outline>
</glyph>
<glyph name="s" format="1">
  <advance width="711"/>
  <unicode hex="0073"/>
  <outline>
    <contour>
      <point x="574" y="-11"/>
      <point x="651" y="37"/>
      <point x="651" y="104" type="curve" smooth="yes"/>
      <point x="651" y="166"/>
      <point x="601" y="211"/>
      <point x="389" y="229" type="curve" smooth="yes"/>
      <point x="207" y="244"/>
      <point x="193" y="251"/>
      <point x="193" y="267" type="curve" smooth="yes"/>
      <point x="193" y="284"/>
      <point x="219" y="296"/>
      <point x="313" y="296" type="curve" smooth="yes"/>
      <point x="416" y="296"/>
      <point x="516" y="272"/>
      <point x="584" y="221" type="curve"/>
      <point x="622" y="227" type="line"/>
      <point x="622" y="357" type="line"/>
      <point x="538" y="357" type="line"/>
      <point x="538" y="256" type="line"/>
      <point x="578" y="260" type="line"/>
      <point x="521" y="330"/>
      <point x="422" y="367"/>
      <point x="294" y="367" type="curve" smooth="yes"/>
      <point x="147" y="367"/>
      <point x="75" y="316"/>
      <point x="75" y="251" type="curve" smooth="yes"/>
      <point x="75" y="191"/>
      <point x="111" y="142"/>
      <point x="319" y="127" type="curve" smooth="yes"/>
      <point x="515" y="114"/>
      <point x="533" y="101"/>
      <point x="533" y="87" type="curve" smooth="yes"/>
      <point x="533" y="68"/>
      <point x="499" y="58"/>
      <point x="411" y="58" type="curve" smooth="yes"/>
      <point x="314" y="58"/>
      <point x="176" y="83"/>
      <point x="113" y="143" type="curve"/>
      <point x="75" y="138" type="line"/>
      <point x="75" y="-1" type="line"/>
      <point x="160" y="-1" type="line"/>
      <point x="160" y="96" type="line"/>
      <point x="118" y="93" type="line"/>
      <point x="183" y="19"/>
      <point x="290" y="-11"/>
      <point x="426" y="-11" type="curve" smooth="yes"/>
    </contour>
    <contour>
      <point x="304" y="367" type="move" name="top"/>
    </contour>
    <contour>
      <point x="448" y="-16" type="move" name="bottom"/>
    </contour>
  </outline>
</glyph>
<glyph name="t" format="1">
  <advance width="522"/>
  <unicode hex="0074"/>
  <outline>
    <contour>
      <point x="375" y="-10"/>
      <point x="446" y="15"/>
      <point x="493" y="44" type="curve"/>
      <point x="454" y="129" type="line"/>
      <point x="416" y="108"/>
      <point x="368" y="91"/>
      <point x="314" y="91" type="curve" smooth="yes"/>
      <point x="250" y="91"/>
      <point x="237" y="127"/>
      <point x="237" y="167" type="curve"/>
      <point x="237" y="456" type="line"/>
      <point x="124" y="456" type="line"/>
      <point x="124" y="165" type="line"/>
      <point x="124" y="60"/>
      <point x="176" y="-10"/>
      <point x="295" y="-10" type="curve" smooth="yes"/>
    </contour>
    <contour>
      <point x="438" y="267" type="line"/>
      <point x="438" y="357" type="line"/>
      <point x="15" y="357" type="line"/>
      <point x="15" y="267" type="line"/>
    </contour>
    <contour>
      <point x="295" y="-10" type="move" name="bottom"/>
    </contour>
    <contour>
      <point x="255" y="456" type="move" name="top"/>
    </contour>
    <contour>
      <point x="348" y="419" type="move" name="topright"/>
    </contour>
    <contour>
      <point x="255" y="179" type="move" name="center"/>
    </contour>
  </outline>
</glyph>
<glyph name="u" format="1">
  <advance width="882"/>
  <unicode hex="0075"/>
  <outline>
    <contour>
      <point x="502" y="-10"/>
      <point x="611" y="87"/>
      <point x="691" y="172" type="curve"/>
      <point x="691" y="262" type="line"/>
      <point x="629" y="194"/>
      <point x="518" y="98"/>
      <point x="396" y="98" type="curve" smooth="yes"/>
      <point x="281" y="98"/>
      <point x="255" y="165"/>
      <point x="255" y="231" type="curve" smooth="yes"/>
      <point x="255" y="357" type="line"/>
      <point x="140" y="357" type="line"/>
      <point x="140" y="236" type="line" smooth="yes"/>
      <point x="140" y="117"/>
      <point x="190" y="-10"/>
      <point x="368" y="-10" type="curve" smooth="yes"/>
    </contour>
    <contour>
      <point x="237" y="267" type="line"/>
      <point x="237" y="357" type="line"/>
      <point x="10" y="357" type="line"/>
      <point x="10" y="267" type="line"/>
    </contour>
    <contour>
      <point x="800" y="-9"/>
      <point x="826" y="3"/>
      <point x="847" y="17" type="curve"/>
      <point x="820" y="96" type="line"/>
      <point x="810" y="91"/>
      <point x="798" y="86"/>
      <point x="783" y="86" type="curve" smooth="yes"/>
      <point x="763" y="86"/>
      <point x="744" y="98"/>
      <point x="744" y="139" type="curve" smooth="yes"/>
      <point x="744" y="357" type="line"/>
      <point x="627" y="357" type="line"/>
      <point x="627" y="118" type="line" smooth="yes"/>
      <point x="627" y="34"/>
      <point x="683" y="-9"/>
      <point x="753" y="-9" type="curve" smooth="yes"/>
    </contour>
    <contour>
      <point x="729" y="267" type="line"/>
      <point x="729" y="357" type="line"/>
      <point x="514" y="357" type="line"/>
      <point x="514" y="267" type="line"/>
    </contour>
    <contour>
      <point x="847" y="17" type="move" name="ogonek"/>
    </contour>
    <contour>
      <point x="407" y="347" type="move" name="top"/>
    </contour>
    <contour>
      <point x="820" y="357" type="move" name="topright"/>
    </contour>
    <contour>
      <point x="368" y="-10" type="move" name="bottom"/>
    </contour>
  </outline>
</glyph>
<glyph name="v" format="1">
  <advance width="778"/>
  <unicode hex="0076"/>
  <outline>
    <contour>
      <point x="422" y="-10" type="line"/>
      <point x="688" y="304" type="line"/>
      <point x="579" y="304" type="line"/>
      <point x="405" y="90" type="line"/>
      <point x="230" y="305" type="line"/>
      <point x="91" y="305" type="line"/>
      <point x="358" y="-10" type="line"/>
    </contour>
    <contour>
      <point x="337" y="267" type="line"/>
      <point x="337" y="357" type="line"/>
      <point x="20" y="357" type="line"/>
      <point x="20" y="267" type="line"/>
    </contour>
    <contour>
      <point x="758" y="267" type="line"/>
      <point x="758" y="357" type="line"/>
      <point x="473" y="357" type="line"/>
      <point x="473" y="267" type="line"/>
    </contour>
    <contour>
      <point x="381" y="347" type="move" name="top"/>
    </contour>
    <contour>
      <point x="379" y="0" type="move" name="bottom"/>
    </contour>
  </outline>
</glyph>
<glyph name="y" format="1">
  <advance width="764"/>
  <unicode hex="0079"/>
  <outline>
    <contour>
      <point x="312" y="-180"/>
      <point x="383" y="-122"/>
      <point x="452" y="-5" type="curve" smooth="yes"/>
      <point x="686" y="344" type="line"/>
      <point x="580" y="344" type="line"/>
      <point x="363" y="18" type="line" smooth="yes"/>
      <point x="318" y="-50"/>
      <point x="279" y="-79"/>
      <point x="208" y="-79" type="curve" smooth="yes"/>
      <point x="159" y="-79"/>
      <point x="119" y="-66"/>
      <point x="74" y="-49" type="curve"/>
      <point x="35" y="-138" type="line"/>
      <point x="100" y="-165"/>
      <point x="139" y="-180"/>
      <point x="207" y="-180" type="curve" smooth="yes"/>
    </contour>
    <contour>
      <point x="442" y="29" type="line"/>
      <point x="218" y="343" type="line"/>
      <point x="85" y="343" type="line"/>
      <point x="372" y="-54" type="line"/>
    </contour>
    <contour>
      <point x="353" y="267" type="line"/>
      <point x="353" y="357" type="line"/>
      <point x="42" y="357" type="line"/>
      <point x="42" y="267" type="line"/>
    </contour>
    <contour>
      <point x="744" y="267" type="line"/>
      <point x="744" y="357" type="line"/>
      <point x="451" y="357" type="line"/>
      <point x="451" y="267" type="line"/>
    </contour>
    <contour>
      <point x="404" y="347" type="move" name="top"/>
    </contour>
    <contour>
      <point x="395" y="0" type="move" name="bottom"/>
    </contour>
  </outline>
</glyph>
<glyph name="z" format="1">
  <advance width="708"/>
  <unicode hex="007A"/>
  <outline>
    <contour>
      <point x="517" y="279"/>
      <point x="445" y="265"/>
      <point x="336" y="223" type="curve" smooth="yes"/>
      <point x="244" y="190"/>
      <point x="119" y="149"/>
      <point x="50" y="33" type="curve"/>
      <point x="144" y="-11" type="line"/>
      <point x="202" y="75"/>
      <point x="281" y="105"/>
      <point x="392" y="142" type="curve" smooth="yes"/>
      <point x="517" y="181"/>
      <point x="604" y="220"/>
      <point x="656" y="327" type="curve"/>
      <point x="560" y="368" type="line"/>
    </contour>
    <contour>
      <point x="571" y="-11"/>
      <point x="655" y="34"/>
      <point x="673" y="132" type="curve"/>
      <point x="575" y="160" type="line"/>
      <point x="560" y="117"/>
      <point x="516" y="85"/>
      <point x="453" y="85" type="curve" smooth="yes"/>
      <point x="381" y="85"/>
      <point x="330" y="102"/>
      <point x="187" y="154" type="curve"/>
      <point x="162" y="102" type="line"/>
      <point x="304" y="30"/>
      <point x="361" y="-11"/>
      <point x="472" y="-11" type="curve" smooth="yes"/>
    </contour>
    <contour>
      <point x="167" y="196" type="line"/>
      <point x="167" y="270" type="line"/>
      <point x="369" y="270"/>
      <point x="430" y="201"/>
      <point x="489" y="204" type="curve"/>
      <point x="525" y="259" type="line"/>
      <point x="425" y="300"/>
      <point x="368" y="367"/>
      <point x="137" y="367" type="curve" smooth="yes"/>
      <point x="68" y="367" type="line"/>
      <point x="68" y="196" type="line"/>
    </contour>
    <contour>
      <point x="390" y="367" type="move" name="top"/>
    </contour>
    <contour>
      <point x="301" y="-10" type="move" name="bottom"/>
    </contour>
  </outline>
</glyph>
<glyph name="bar" format="1">
  <advance width="323"/>
  <unicode hex="007C"/>
  <outline>
    <contour>
      <point x="107" y="-146" type="line"/>
      <point x="216" y="-146" type="line"/>
      <point x="216" y="634" type="line"/>
      <point x="107" y="634" type="line"/>
    </contour>
  </outline>
</glyph>
<glyph name="asciitilde" format="1">
  <advance width="733"/>
  <unicode hex="007E"/>
  <outline>
    <contour>
      <point x="625" y="136"/>
      <point x="671" y="241"/>
      <point x="675" y="326" type="curve"/>
      <point x="578" y="330" type="line"/>
      <point x="575" y="274"/>
      <point x="555" y="232"/>
      <point x="505" y="232" type="curve" smooth="yes"/>
      <point x="472" y="232"/>
      <point x="438" y="255"/>
      <point x="398" y="281" type="curve" smooth="yes"/>
      <point x="352" y="310"/>
      <point x="306" y="344"/>
      <point x="231" y="344" type="curve" smooth="yes"/>
      <point x="114" y="344"/>
      <point x="62" y="239"/>
      <point x="58" y="154" type="curve"/>
      <point x="155" y="150" type="line"/>
      <point x="160" y="206"/>
      <point x="183" y="248"/>
      <point x="229" y="248" type="curve" smooth="yes"/>
      <point x="266" y="248"/>
      <point x="293" y="228"/>
      <point x="332" y="203" type="curve" smooth="yes"/>
      <point x="380" y="173"/>
      <point x="432" y="136"/>
      <point x="503" y="136" type="curve" smooth="yes"/>
    </contour>
  </outline>
</glyph>
<glyph name="cent" format="1">
  <advance width="724"/>
  <unicode hex="00A2"/>
  <outline>
    <contour>
      <point x="514" y="58"/>
      <point x="602" y="95"/>
      <point x="664" y="130" type="curve"/>
      <point x="623" y="208" type="line"/>
      <point x="562" y="174"/>
      <point x="485" y="145"/>
      <point x="373" y="145" type="curve" smooth="yes"/>
      <point x="253" y="145"/>
      <point x="184" y="174"/>
      <point x="184" y="230" type="curve" smooth="yes"/>
      <point x="184" y="307"/>
      <point x="289" y="326"/>
      <point x="372" y="325" type="curve" smooth="yes"/>
      <point x="448" y="324"/>
      <point x="527" y="301"/>
      <point x="595" y="269" type="curve"/>
      <point x="646" y="280" type="line"/>
      <point x="646" y="403" type="line"/>
      <point x="567" y="403" type="line"/>
      <point x="567" y="334" type="line"/>
      <point x="611" y="331" type="line"/>
      <point x="550" y="368"/>
      <point x="468" y="413"/>
      <point x="350" y="413" type="curve" smooth="yes"/>
      <point x="212" y="413"/>
      <point x="68" y="359"/>
      <point x="68" y="230" type="curve" smooth="yes"/>
      <point x="68" y="107"/>
      <point x="220" y="56"/>
      <point x="370" y="57" type="curve" smooth="yes"/>
    </contour>
    <contour>
      <point x="415" y="-10" type="line"/>
      <point x="415" y="118" type="line"/>
      <point x="409" y="134" type="line"/>
      <point x="409" y="361" type="line"/>
      <point x="415" y="372" type="line"/>
      <point x="415" y="480" type="line"/>
      <point x="327" y="480" type="line"/>
      <point x="327" y="373" type="line"/>
      <point x="333" y="361" type="line"/>
      <point x="333" y="131" type="line"/>
      <point x="327" y="118" type="line"/>
      <point x="327" y="-10" type="line"/>
    </contour>
  </outline>
</glyph>
<glyph name="sterling" format="1">
  <advance width="789"/>
  <unicode hex="00A3"/>
  <outline>
    <contour>
      <point x="117" y="-10" type="line" smooth="yes"/>
      <point x="249" y="-10"/>
      <point x="337" y="49"/>
      <point x="337" y="136" type="curve" smooth="yes"/>
      <point x="337" y="204"/>
      <point x="263" y="227"/>
      <point x="263" y="307" type="curve" smooth="yes"/>
      <point x="263" y="365"/>
      <point x="330" y="390"/>
      <point x="411" y="390" type="curve" smooth="yes"/>
      <point x="498" y="390"/>
      <point x="596" y="375"/>
      <point x="676" y="311" type="curve"/>
      <point x="736" y="318" type="line"/>
      <point x="736" y="480" type="line"/>
      <point x="639" y="480" type="line"/>
      <point x="639" y="360" type="line"/>
      <point x="714" y="358" type="line"/>
      <point x="628" y="441"/>
      <point x="526" y="480"/>
      <point x="386" y="480" type="curve" smooth="yes"/>
      <point x="252" y="480"/>
      <point x="151" y="416"/>
      <point x="151" y="307" type="curve" smooth="yes"/>
      <point x="151" y="216"/>
      <point x="218" y="205"/>
      <point x="218" y="143" type="curve" smooth="yes"/>
      <point x="218" y="89"/>
      <point x="144" y="85"/>
      <point x="117" y="85" type="curve" smooth="yes"/>
      <point x="66" y="85" type="line"/>
      <point x="66" y="-10" type="line"/>
    </contour>
    <contour>
      <point x="601" y="140" type="line"/>
      <point x="601" y="204" type="line"/>
      <point x="68" y="204" type="line"/>
      <point x="68" y="140" type="line"/>
    </contour>
    <contour>
      <point x="677" y="-10"/>
      <point x="747" y="42"/>
      <point x="768" y="133" type="curve"/>
      <point x="684" y="162" type="line"/>
      <point x="668" y="113"/>
      <point x="634" y="86"/>
      <point x="562" y="86" type="curve" smooth="yes"/>
      <point x="489" y="86"/>
      <point x="370" y="116"/>
      <point x="267" y="213" type="curve"/>
      <point x="257" y="120" type="line"/>
      <point x="361" y="22"/>
      <point x="479" y="-10"/>
      <point x="561" y="-10" type="curve" smooth="yes"/>
    </contour>
    <contour>
      <point x="601" y="244" type="line"/>
      <point x="601" y="309" type="line"/>
      <point x="68" y="309" type="line"/>
      <point x="68" y="244" type="line"/>
    </contour>
  </outline>
</glyph>
<glyph name="currency" format="1">
  <advance width="547"/>
  <unicode hex="00A4"/>
  <outline>
    <contour>
      <point x="376" y="83"/>
      <point x="439" y="145"/>
      <point x="439" y="226" type="curve"/>
      <point x="439" y="310"/>
      <point x="376" y="368"/>
      <point x="272" y="368" type="curve"/>
      <point x="173" y="368"/>
      <point x="103" y="310"/>
      <point x="103" y="226" type="curve"/>
      <point x="103" y="145"/>
      <point x="173" y="83"/>
      <point x="272" y="83" type="curve"/>
    </contour>
    <contour>
      <point x="199" y="117" type="line"/>
      <point x="157" y="157" type="line"/>
      <point x="66" y="51" type="line"/>
      <point x="109" y="11" type="line"/>
    </contour>
    <contour>
      <point x="481" y="51" type="line"/>
      <point x="390" y="157" type="line"/>
      <point x="348" y="117" type="line"/>
      <point x="438" y="11" type="line"/>
    </contour>
    <contour>
      <point x="199" y="334" type="line"/>
      <point x="109" y="440" type="line"/>
      <point x="66" y="400" type="line"/>
      <point x="157" y="294" type="line"/>
    </contour>
    <contour>
      <point x="481" y="400" type="line"/>
      <point x="438" y="440" type="line"/>
      <point x="348" y="334" type="line"/>
      <point x="390" y="294" type="line"/>
    </contour>
    <contour>
      <point x="218" y="161"/>
      <point x="193" y="191"/>
      <point x="193" y="226" type="curve"/>
      <point x="193" y="263"/>
      <point x="218" y="290"/>
      <point x="272" y="290" type="curve"/>
      <point x="327" y="290"/>
      <point x="350" y="263"/>
      <point x="350" y="226" type="curve"/>
      <point x="350" y="191"/>
      <point x="327" y="161"/>
      <point x="272" y="161" type="curve"/>
    </contour>
  </outline>
</glyph>
<glyph name="section" format="1">
  <advance width="865"/>
  <unicode hex="00A7"/>
  <outline>
    <contour>
      <point x="698" y="11"/>
      <point x="805" y="63"/>
      <point x="805" y="156" type="curve" smooth="yes"/>
      <point x="805" y="246"/>
      <point x="717" y="297"/>
      <point x="513" y="317" type="curve" smooth="yes"/>
      <point x="306" y="337"/>
      <point x="249" y="346"/>
      <point x="249" y="381" type="curve" smooth="yes"/>
      <point x="249" y="421"/>
      <point x="303" y="434"/>
      <point x="364" y="434" type="curve" smooth="yes"/>
      <point x="491" y="434"/>
      <point x="596" y="389"/>
      <point x="661" y="336" type="curve"/>
      <point x="733" y="341" type="line"/>
      <point x="733" y="520" type="line"/>
      <point x="624" y="520" type="line"/>
      <point x="624" y="396" type="line"/>
      <point x="681" y="412" type="line"/>
      <point x="612" y="461"/>
      <point x="501" y="530"/>
      <point x="351" y="530" type="curve" smooth="yes"/>
      <point x="232" y="530"/>
      <point x="121" y="474"/>
      <point x="121" y="370" type="curve" smooth="yes"/>
      <point x="121" y="276"/>
      <point x="226" y="220"/>
      <point x="451" y="199" type="curve" smooth="yes"/>
      <point x="620" y="185"/>
      <point x="676" y="165"/>
      <point x="676" y="118" type="curve" smooth="yes"/>
      <point x="676" y="65"/>
      <point x="595" y="47"/>
      <point x="505" y="44" type="curve"/>
      <point x="544" y="-6" type="line"/>
    </contour>
    <contour>
      <point x="648" y="-248"/>
      <point x="759" y="-192"/>
      <point x="759" y="-88" type="curve" smooth="yes"/>
      <point x="759" y="6"/>
      <point x="653" y="62"/>
      <point x="429" y="83" type="curve" smooth="yes"/>
      <point x="259" y="97"/>
      <point x="204" y="117"/>
      <point x="204" y="162" type="curve" smooth="yes"/>
      <point x="204" y="207"/>
      <point x="275" y="235"/>
      <point x="375" y="238" type="curve"/>
      <point x="336" y="288" type="line"/>
      <point x="182" y="271"/>
      <point x="75" y="218"/>
      <point x="75" y="122" type="curve" smooth="yes"/>
      <point x="75" y="31"/>
      <point x="163" y="-21"/>
      <point x="367" y="-35" type="curve" smooth="yes"/>
      <point x="573" y="-48"/>
      <point x="631" y="-64"/>
      <point x="631" y="-99" type="curve" smooth="yes"/>
      <point x="631" y="-139"/>
      <point x="572" y="-152"/>
      <point x="515" y="-152" type="curve" smooth="yes"/>
      <point x="388" y="-152"/>
      <point x="274" y="-97"/>
      <point x="218" y="-54" type="curve"/>
      <point x="146" y="-59" type="line"/>
      <point x="146" y="-239" type="line"/>
      <point x="256" y="-239" type="line"/>
      <point x="256" y="-114" type="line"/>
      <point x="198" y="-130" type="line"/>
      <point x="268" y="-179"/>
      <point x="379" y="-248"/>
      <point x="529" y="-248" type="curve" smooth="yes"/>
    </contour>
  </outline>
</glyph>
<glyph name="degree" format="1">
  <advance width="349"/>
  <unicode hex="00B0"/>
  <outline>
    <contour>
      <point x="269" y="362"/>
      <point x="329" y="419"/>
      <point x="329" y="489" type="curve" smooth="yes"/>
      <point x="329" y="570"/>
      <point x="269" y="613"/>
      <point x="176" y="613" type="curve" smooth="yes"/>
      <point x="92" y="613"/>
      <point x="20" y="565"/>
      <point x="20" y="488" type="curve" smooth="yes"/>
      <point x="20" y="414"/>
      <point x="92" y="362"/>
      <point x="176" y="362" type="curve" smooth="yes"/>
    </contour>
    <contour>
      <point x="134" y="431"/>
      <point x="101" y="455"/>
      <point x="101" y="488" type="curve" smooth="yes"/>
      <point x="101" y="523"/>
      <point x="134" y="543"/>
      <point x="176" y="543" type="curve" smooth="yes"/>
      <point x="223" y="543"/>
      <point x="249" y="527"/>
      <point x="249" y="489" type="curve" smooth="yes"/>
      <point x="249" y="458"/>
      <point x="223" y="431"/>
      <point x="176" y="431" type="curve" smooth="yes"/>
    </contour>
  </outline>
</glyph>
<glyph name="periodcentered" format="1">
  <advance width="286"/>
  <unicode hex="00B7"/>
  <outline>
    <contour>
      <point x="198" y="184"/>
      <point x="231" y="210"/>
      <point x="231" y="247" type="curve"/>
      <point x="231" y="286"/>
      <point x="198" y="314"/>
      <point x="144" y="314" type="curve"/>
      <point x="92" y="314"/>
      <point x="56" y="286"/>
      <point x="56" y="247" type="curve"/>
      <point x="56" y="210"/>
      <point x="92" y="184"/>
      <point x="144" y="184" type="curve"/>
    </contour>
  </outline>
</glyph>
<glyph name="multiply" format="1">
  <advance width="639"/>
  <unicode hex="00D7"/>
  <outline>
    <contour>
      <point x="570" y="80" type="line"/>
      <point x="117" y="465" type="line"/>
      <point x="47" y="394" type="line"/>
      <point x="502" y="8" type="line"/>
    </contour>
    <contour>
      <point x="569" y="395" type="line"/>
      <point x="502" y="465" type="line"/>
      <point x="49" y="80" type="line"/>
      <point x="116" y="10" type="line"/>
    </contour>
  </outline>
</glyph>
<glyph name="ae" format="1">
  <advance width="1270"/>
  <unicode hex="00E6"/>
  <outline>
    <contour>
      <point x="1043" y="-11"/>
      <point x="1141" y="18"/>
      <point x="1225" y="66" type="curve"/>
      <point x="1181" y="142" type="line"/>
      <point x="1102" y="99"/>
      <point x="1023" y="78"/>
      <point x="904" y="80" type="curve" smooth="yes"/>
      <point x="786" y="82"/>
      <point x="697" y="117"/>
      <point x="697" y="176" type="curve" smooth="yes"/>
      <point x="697" y="247"/>
      <point x="820" y="279"/>
      <point x="933" y="279" type="curve" smooth="yes"/>
      <point x="1030" y="279"/>
      <point x="1085" y="263"/>
      <point x="1085" y="235" type="curve" smooth="yes"/>
      <point x="1085" y="208"/>
      <point x="1033" y="200"/>
      <point x="958" y="200" type="curve" smooth="yes"/>
      <point x="879" y="200"/>
      <point x="763" y="209"/>
      <point x="667" y="244" type="curve"/>
      <point x="667" y="184" type="line"/>
      <point x="763" y="153"/>
      <point x="854" y="128"/>
      <point x="964" y="128" type="curve" smooth="yes"/>
      <point x="1084" y="128"/>
      <point x="1200" y="157"/>
      <point x="1200" y="241" type="curve" smooth="yes"/>
      <point x="1200" y="324"/>
      <point x="1089" y="367"/>
      <point x="918" y="367" type="curve" smooth="yes"/>
      <point x="785" y="367"/>
      <point x="664" y="325"/>
      <point x="613" y="250" type="curve"/>
      <point x="678" y="246" type="line"/>
      <point x="642" y="327"/>
      <point x="557" y="369"/>
      <point x="437" y="369" type="curve" smooth="yes"/>
      <point x="316" y="369"/>
      <point x="203" y="354"/>
      <point x="93" y="329" type="curve"/>
      <point x="111" y="239" type="line"/>
      <point x="221" y="262"/>
      <point x="309" y="274"/>
      <point x="409" y="274" type="curve" smooth="yes"/>
      <point x="510" y="274"/>
      <point x="586" y="239"/>
      <point x="586" y="169" type="curve" smooth="yes"/>
      <point x="586" y="151" type="line" smooth="yes"/>
      <point x="586" y="45"/>
      <point x="760" y="-11"/>
      <point x="913" y="-11" type="curve" smooth="yes"/>
    </contour>
    <contour>
      <point x="397" y="-9"/>
      <point x="536" y="29"/>
      <point x="640" y="83" type="curve"/>
      <point x="620" y="126" type="line"/>
      <point x="517" y="98"/>
      <point x="422" y="80"/>
      <point x="299" y="80" type="curve" smooth="yes"/>
      <point x="229" y="80"/>
      <point x="199" y="91"/>
      <point x="199" y="116" type="curve" smooth="yes"/>
      <point x="199" y="143"/>
      <point x="240" y="155"/>
      <point x="320" y="155" type="curve" smooth="yes"/>
      <point x="416" y="155"/>
      <point x="516" y="145"/>
      <point x="620" y="130" type="curve"/>
      <point x="620" y="185" type="line"/>
      <point x="535" y="207"/>
      <point x="414" y="229"/>
      <point x="299" y="229" type="curve" smooth="yes"/>
      <point x="163" y="229"/>
      <point x="71" y="196"/>
      <point x="71" y="108" type="curve" smooth="yes"/>
      <point x="71" y="25"/>
      <point x="156" y="-7"/>
      <point x="268" y="-8" type="curve" smooth="yes"/>
    </contour>
    <contour>
      <point x="1203" y="62" type="move" name="ogonek"/>
    </contour>
    <contour>
      <point x="622" y="-10" type="move" name="bottom"/>
    </contour>
    <contour>
      <point x="617" y="367" type="move" name="top"/>
    </contour>
  </outline>
</glyph>
<glyph name="oslash" format="1">
  <advance width="792"/>
  <unicode hex="00F8"/>
  <outline>
    <contour>
      <point x="347" y="42" type="line"/>
      <point x="346" y="58" type="line"/>
      <point x="495" y="279" type="line"/>
      <point x="511" y="287" type="line"/>
      <point x="575" y="411" type="line"/>
      <point x="470" y="411" type="line"/>
      <point x="419" y="317" type="line"/>
      <point x="420" y="300" type="line"/>
      <point x="267" y="67" type="line"/>
      <point x="249" y="55" type="line"/>
      <point x="186" y="-59" type="line"/>
      <point x="291" y="-59" type="line"/>
    </contour>
    <component base="o"/>
  </outline>
</glyph>
<glyph name="thorn" format="1">
  <advance width="859"/>
  <unicode hex="00FE"/>
  <outline>
    <contour>
      <point x="679" y="-11"/>
      <point x="809" y="64"/>
      <point x="809" y="188" type="curve" smooth="yes"/>
      <point x="809" y="306"/>
      <point x="704" y="367"/>
      <point x="561" y="367" type="curve" smooth="yes"/>
      <point x="406" y="367"/>
      <point x="284" y="295"/>
      <point x="167" y="217" type="curve"/>
      <point x="167" y="138" type="line"/>
      <point x="295" y="221"/>
      <point x="436" y="270"/>
      <point x="540" y="270" type="curve" smooth="yes"/>
      <point x="636" y="270"/>
      <point x="689" y="238"/>
      <point x="689" y="182" type="curve" smooth="yes"/>
      <point x="689" y="125"/>
      <point x="620" y="84"/>
      <point x="508" y="84" type="curve" smooth="yes"/>
      <point x="393" y="84"/>
      <point x="259" y="108"/>
      <point x="173" y="145" type="curve"/>
      <point x="173" y="69" type="line"/>
      <point x="253" y="33"/>
      <point x="373" y="-11"/>
      <point x="524" y="-11" type="curve" smooth="yes"/>
    </contour>
    <contour>
      <point x="363" y="-165" type="line"/>
      <point x="363" y="-75" type="line"/>
      <point x="-20" y="-75" type="line"/>
      <point x="-20" y="-165" type="line"/>
    </contour>
    <contour>
      <point x="233" y="-152" type="line"/>
      <point x="233" y="520" type="line"/>
      <point x="-20" y="520" type="line"/>
      <point x="-20" y="430" type="line"/>
      <point x="120" y="430" type="line"/>
      <point x="120" y="-152" type="line"/>
    </contour>
  </outline>
</glyph>
<glyph name="Hbar" format="1">
  <advance width="1135"/>
  <unicode hex="0126"/>
  <outline>
    <contour>
      <point x="1081" y="318" type="line"/>
      <point x="1081" y="392" type="line"/>
      <point x="51" y="392" type="line"/>
      <point x="51" y="318" type="line"/>
    </contour>
    <contour>
      <point x="486" y="0" type="line"/>
      <point x="486" y="96" type="line"/>
      <point x="55" y="96" type="line"/>
      <point x="55" y="0" type="line"/>
    </contour>
    <contour>
      <point x="332" y="51" type="line"/>
      <point x="332" y="462" type="line"/>
      <point x="209" y="462" type="line"/>
      <point x="209" y="51" type="line"/>
    </contour>
    <contour>
      <point x="1084" y="0" type="line"/>
      <point x="1084" y="96" type="line"/>
      <point x="653" y="96" type="line"/>
      <point x="653" y="0" type="line"/>
    </contour>
    <contour>
      <point x="892" y="204" type="line"/>
      <point x="892" y="291" type="line"/>
      <point x="248" y="291" type="line"/>
      <point x="248" y="204" type="line"/>
    </contour>
    <contour>
      <point x="486" y="424" type="line"/>
      <point x="486" y="520" type="line"/>
      <point x="55" y="520" type="line"/>
      <point x="55" y="424" type="line"/>
    </contour>
    <contour>
      <point x="930" y="56" type="line"/>
      <point x="930" y="467" type="line"/>
      <point x="807" y="467" type="line"/>
      <point x="807" y="56" type="line"/>
    </contour>
    <contour>
      <point x="1084" y="424" type="line"/>
      <point x="1084" y="520" type="line"/>
      <point x="653" y="520" type="line"/>
      <point x="653" y="424" type="line"/>
    </contour>
    <contour>
      <point x="560" y="255" type="move" name="center"/>
    </contour>
    <contour>
      <point x="560" y="0" type="move" name="bottom"/>
    </contour>
    <contour>
      <point x="560" y="520" type="move" name="top"/>
    </contour>
  </outline>
</glyph>
<glyph name="hbar" format="1">
  <advance width="941"/>
  <unicode hex="0127"/>
  <outline>
    <contour>
      <point x="801" y="0" type="line"/>
      <point x="801" y="120" type="line" smooth="yes"/>
      <point x="801" y="239"/>
      <point x="751" y="366"/>
      <point x="573" y="366" type="curve" smooth="yes"/>
      <point x="439" y="366"/>
      <point x="330" y="269"/>
      <point x="250" y="184" type="curve"/>
      <point x="250" y="94" type="line"/>
      <point x="312" y="162"/>
      <point x="428" y="263"/>
      <point x="550" y="263" type="curve" smooth="yes"/>
      <point x="660" y="263"/>
      <point x="686" y="196"/>
      <point x="686" y="130" type="curve" smooth="yes"/>
      <point x="686" y="0" type="line"/>
    </contour>
    <contour>
      <point x="403" y="0" type="line"/>
      <point x="403" y="90" type="line"/>
      <point x="34" y="90" type="line"/>
      <point x="34" y="0" type="line"/>
    </contour>
    <contour>
      <point x="290" y="0" type="line"/>
      <point x="290" y="520" type="line"/>
      <point x="174" y="520" type="line"/>
      <point x="174" y="0" type="line"/>
    </contour>
    <contour>
      <point x="283" y="430" type="line"/>
      <point x="283" y="520" type="line"/>
      <point x="30" y="520" type="line"/>
      <point x="30" y="430" type="line"/>
    </contour>
    <contour>
      <point x="931" y="0" type="line"/>
      <point x="931" y="90" type="line"/>
      <point x="573" y="90" type="line"/>
      <point x="573" y="0" type="line"/>
    </contour>
    <contour>
      <point x="460" y="386" type="line"/>
      <point x="460" y="469" type="line"/>
      <point x="30" y="469" type="line"/>
      <point x="30" y="386" type="line"/>
    </contour>
    <contour>
      <point x="460" y="179" type="move" name="center"/>
    </contour>
    <contour>
      <point x="460" y="0" type="move" name="bottom"/>
    </contour>
    <contour>
      <point x="460" y="343" type="move" name="top"/>
    </contour>
  </outline>
</glyph>
<glyph name="OE" format="1">
  <advance width="1496"/>
  <unicode hex="0152"/>
  <outline>
    <contour>
      <point x="1396" y="0" type="line"/>
      <point x="1396" y="209" type="line"/>
      <point x="1288" y="209" type="line"/>
      <point x="1288" y="96" type="line"/>
      <point x="441" y="96" type="line" smooth="yes"/>
      <point x="342" y="96"/>
      <point x="173" y="113"/>
      <point x="173" y="266" type="curve" smooth="yes"/>
      <point x="173" y="420"/>
      <point x="342" y="424"/>
      <point x="441" y="424" type="curve" smooth="yes"/>
      <point x="1288" y="424" type="line"/>
      <point x="1288" y="309" type="line"/>
      <point x="1396" y="309" type="line"/>
      <point x="1396" y="520" type="line"/>
      <point x="411" y="520" type="line" smooth="yes"/>
      <point x="246" y="520"/>
      <point x="45" y="462"/>
      <point x="45" y="266" type="curve" smooth="yes"/>
      <point x="45" y="70"/>
      <point x="246" y="0"/>
      <point x="411" y="0" type="curve" smooth="yes"/>
    </contour>
    <contour>
      <point x="791" y="53" type="line"/>
      <point x="791" y="458" type="line"/>
      <point x="669" y="458" type="line"/>
      <point x="669" y="53" type="line"/>
    </contour>
    <contour>
      <point x="1076" y="210" type="line"/>
      <point x="1076" y="297" type="line"/>
      <point x="713" y="297" type="line"/>
      <point x="713" y="210" type="line"/>
    </contour>
    <contour>
      <point x="1117" y="126" type="line"/>
      <point x="1117" y="382" type="line"/>
      <point x="1021" y="382" type="line"/>
      <point x="1021" y="126" type="line"/>
    </contour>
    <contour>
      <point x="792" y="0" type="move" name="bottom"/>
    </contour>
    <contour>
      <point x="1396" y="0" type="move" name="ogonek"/>
    </contour>
    <contour>
      <point x="792" y="520" type="move" name="top"/>
    </contour>
    <contour>
      <point x="792" y="263" type="move" name="center"/>
    </contour>
  </outline>
</glyph>
<glyph name="uni02BB" format="1">
  <advance width="279"/>
  <unicode hex="02BB"/>
  <outline>
    <contour>
      <point x="58" y="-230"/>
      <point x="89" y="-257"/>
      <point x="132" y="-257" type="curve" smooth="yes"/>
      <point x="176" y="-257"/>
      <point x="206" y="-236"/>
      <point x="206" y="-207" type="curve" smooth="yes"/>
      <point x="206" y="-180"/>
      <point x="183" y="-161"/>
      <point x="147" y="-161" type="curve" smooth="yes"/>
      <point x="135" y="-161"/>
      <point x="119" y="-162"/>
      <point x="111" y="-166" type="curve"/>
      <point x="113" y="-153"/>
      <point x="129" y="-106"/>
      <point x="172" y="-81" type="curve"/>
      <point x="147" y="-56" type="line"/>
      <point x="98" y="-81"/>
      <point x="58" y="-140"/>
      <point x="58" y="-182" type="curve" smooth="yes"/>
    </contour>
    <contour>
      <point x="141" y="0" type="move" name="_bottom"/>
    </contour>
  </outline>
</glyph>
<glyph name="gravecomb" format="1">
  <advance width="497"/>
  <unicode hex="0300"/>
  <outline>
    <contour>
      <point x="394" y="572" type="line"/>
      <point x="78" y="676" type="line"/>
      <point x="132" y="764" type="line"/>
      <point x="420" y="618" type="line"/>
    </contour>
    <contour>
      <point x="254" y="520" type="move" name="_top"/>
    </contour>
  </outline>
</glyph>
<glyph name="uni0302" format="1">
  <advance width="452"/>
  <unicode hex="0302"/>
  <outline>
    <contour>
      <point x="225" y="617" type="line"/>
      <point x="374" y="535" type="line"/>
      <point x="409" y="569" type="line"/>
      <point x="254" y="706" type="line"/>
      <point x="198" y="706" type="line"/>
      <point x="43" y="569" type="line"/>
      <point x="78" y="535" type="line"/>
    </contour>
    <contour>
      <point x="226" y="520" type="move" name="_top"/>
    </contour>
  </outline>
</glyph>
<glyph name="tildecomb" format="1">
  <advance width="541"/>
  <unicode hex="0303"/>
  <outline>
    <contour>
      <point x="434" y="595"/>
      <point x="476" y="646"/>
      <point x="483" y="707" type="curve"/>
      <point x="420" y="714" type="line"/>
      <point x="415" y="687"/>
      <point x="402" y="657"/>
      <point x="365" y="657" type="curve" smooth="yes"/>
      <point x="342" y="657"/>
      <point x="317" y="670"/>
      <point x="288" y="683" type="curve" smooth="yes"/>
      <point x="257" y="697"/>
      <point x="221" y="712"/>
      <point x="179" y="712" type="curve" smooth="yes"/>
      <point x="107" y="712"/>
      <point x="65" y="660"/>
      <point x="58" y="598" type="curve"/>
      <point x="122" y="590" type="line"/>
      <point x="129" y="628"/>
      <point x="148" y="650"/>
      <point x="177" y="650" type="curve" smooth="yes"/>
      <point x="205" y="650"/>
      <point x="235" y="635"/>
      <point x="267" y="620" type="curve" smooth="yes"/>
      <point x="297" y="607"/>
      <point x="328" y="595"/>
      <point x="363" y="595" type="curve" smooth="yes"/>
    </contour>
    <contour>
      <point x="297" y="520" type="move" name="_top"/>
    </contour>
  </outline>
</glyph>
<glyph name="uni0304" format="1">
  <advance width="621"/>
  <unicode hex="0304"/>
  <outline>
    <contour>
      <point x="58" y="693" type="line"/>
      <point x="58" y="609" type="line"/>
      <point x="563" y="607" type="line"/>
      <point x="563" y="691" type="line"/>
    </contour>
    <contour>
      <point x="320" y="520" type="move" name="_top"/>
    </contour>
  </outline>
</glyph>
<glyph name="uni0306" format="1">
  <advance width="457"/>
  <unicode hex="0306"/>
  <outline>
    <contour>
      <point x="319" y="586"/>
      <point x="394" y="657"/>
      <point x="403" y="732" type="curve"/>
      <point x="335" y="744" type="line"/>
      <point x="321" y="705"/>
      <point x="271" y="681"/>
      <point x="228" y="681" type="curve"/>
      <point x="185" y="681"/>
      <point x="135" y="705"/>
      <point x="121" y="744" type="curve"/>
      <point x="53" y="732" type="line"/>
      <point x="62" y="657"/>
      <point x="139" y="586"/>
      <point x="228" y="586" type="curve"/>
    </contour>
    <contour>
      <point x="228" y="520" type="move" name="_top"/>
    </contour>
  </outline>
</glyph>
<glyph name="uni0307" format="1">
  <advance width="299"/>
  <unicode hex="0307"/>
  <outline>
    <contour>
      <point x="201" y="600"/>
      <point x="232" y="625"/>
      <point x="232" y="658" type="curve"/>
      <point x="232" y="693"/>
      <point x="201" y="718"/>
      <point x="150" y="718" type="curve"/>
      <point x="101" y="718"/>
      <point x="68" y="693"/>
      <point x="68" y="658" type="curve"/>
      <point x="68" y="625"/>
      <point x="101" y="600"/>
      <point x="150" y="600" type="curve"/>
    </contour>
    <contour>
      <point x="149" y="520" type="move" name="_top"/>
    </contour>
  </outline>
</glyph>
<glyph name="uni0308" format="1">
  <advance width="455"/>
  <unicode hex="0308"/>
  <outline>
    <contour>
      <point x="398" y="600"/>
      <point x="424" y="623"/>
      <point x="424" y="651" type="curve"/>
      <point x="424" y="681"/>
      <point x="398" y="703"/>
      <point x="358" y="703" type="curve"/>
      <point x="319" y="703"/>
      <point x="290" y="681"/>
      <point x="290" y="651" type="curve"/>
      <point x="290" y="623"/>
      <point x="319" y="600"/>
      <point x="358" y="600" type="curve"/>
    </contour>
    <contour>
      <point x="150" y="600"/>
      <point x="177" y="623"/>
      <point x="177" y="651" type="curve"/>
      <point x="177" y="681"/>
      <point x="150" y="703"/>
      <point x="110" y="703" type="curve"/>
      <point x="71" y="703"/>
      <point x="43" y="681"/>
      <point x="43" y="651" type="curve"/>
      <point x="43" y="623"/>
      <point x="71" y="600"/>
      <point x="110" y="600" type="curve"/>
    </contour>
    <contour>
      <point x="234" y="520" type="move" name="_top"/>
    </contour>
  </outline>
</glyph>
<glyph name="uni030A" format="1">
  <advance width="390"/>
  <unicode hex="030A"/>
  <outline>
    <contour>
      <point x="269" y="560"/>
      <point x="333" y="601"/>
      <point x="333" y="665" type="curve"/>
      <point x="333" y="724"/>
      <point x="269" y="771"/>
      <point x="195" y="771" type="curve"/>
      <point x="120" y="771"/>
      <point x="58" y="729"/>
      <point x="58" y="666" type="curve"/>
      <point x="58" y="606"/>
      <point x="120" y="560"/>
      <point x="195" y="560" type="curve"/>
    </contour>
    <contour>
      <point x="153" y="616"/>
      <point x="119" y="638"/>
      <point x="119" y="666" type="curve"/>
      <point x="119" y="694"/>
      <point x="153" y="715"/>
      <point x="195" y="715" type="curve"/>
      <point x="237" y="715"/>
      <point x="272" y="692"/>
      <point x="272" y="665" type="curve"/>
      <point x="272" y="636"/>
      <point x="237" y="616"/>
      <point x="195" y="616" type="curve"/>
    </contour>
    <contour>
      <point x="195" y="520" type="move" name="_top"/>
    </contour>
  </outline>
</glyph>
<glyph name="uni030C" format="1">
  <advance width="452"/>
  <unicode hex="030C"/>
  <outline>
    <contour>
      <point x="227" y="625" type="line"/>
      <point x="78" y="707" type="line"/>
      <point x="43" y="673" type="line"/>
      <point x="198" y="536" type="line"/>
      <point x="254" y="536" type="line"/>
      <point x="409" y="673" type="line"/>
      <point x="374" y="707" type="line"/>
    </contour>
    <contour>
      <point x="226" y="520" type="move" name="_top"/>
    </contour>
  </outline>
</glyph>
<glyph name="uni0312" format="1">
  <advance width="269"/>
  <unicode hex="0312"/>
  <outline>
    <contour>
      <point x="58" y="621"/>
      <point x="90" y="596"/>
      <point x="127" y="596" type="curve" smooth="yes"/>
      <point x="168" y="596"/>
      <point x="196" y="616"/>
      <point x="196" y="643" type="curve" smooth="yes"/>
      <point x="196" y="668"/>
      <point x="175" y="685"/>
      <point x="141" y="685" type="curve" smooth="yes"/>
      <point x="131" y="685"/>
      <point x="117" y="685"/>
      <point x="110" y="681" type="curve"/>
      <point x="112" y="695"/>
      <point x="132" y="730"/>
      <point x="182" y="768" type="curve"/>
      <point x="157" y="794" type="line"/>
      <point x="101" y="754"/>
      <point x="58" y="708"/>
      <point x="58" y="666" type="curve" smooth="yes"/>
    </contour>
    <contour>
      <point x="127" y="520" type="move" name="_top"/>
    </contour>
  </outline>
</glyph>
<glyph name="uni0326" format="1">
  <advance width="301"/>
  <unicode hex="0326"/>
  <outline>
    <contour>
      <point x="219" y="-109"/>
      <point x="187" y="-84"/>
      <point x="150" y="-84" type="curve" smooth="yes"/>
      <point x="109" y="-84"/>
      <point x="81" y="-104"/>
      <point x="81" y="-131" type="curve" smooth="yes"/>
      <point x="81" y="-156"/>
      <point x="102" y="-173"/>
      <point x="136" y="-173" type="curve" smooth="yes"/>
      <point x="146" y="-173"/>
      <point x="160" y="-173"/>
      <point x="167" y="-169" type="curve"/>
      <point x="165" y="-183"/>
      <point x="145" y="-218"/>
      <point x="95" y="-256" type="curve"/>
      <point x="120" y="-282" type="line"/>
      <point x="176" y="-242"/>
      <point x="219" y="-196"/>
      <point x="219" y="-154" type="curve" smooth="yes"/>
    </contour>
    <contour>
      <point x="142" y="0" type="move" name="_bottom"/>
    </contour>
  </outline>
</glyph>
<glyph name="uni0327" format="1">
  <advance width="360"/>
  <unicode hex="0327"/>
  <outline>
    <contour>
      <point x="273" y="-199"/>
      <point x="323" y="-164"/>
      <point x="323" y="-122" type="curve" smooth="yes"/>
      <point x="323" y="-79"/>
      <point x="292" y="-60"/>
      <point x="224" y="-55" type="curve" smooth="yes"/>
      <point x="170" y="-50"/>
      <point x="142" y="-45"/>
      <point x="142" y="-28" type="curve" smooth="yes"/>
      <point x="142" y="-16"/>
      <point x="154" y="-7"/>
      <point x="159" y="-11" type="curve"/>
      <point x="120" y="5" type="line"/>
      <point x="96" y="4"/>
      <point x="70" y="-20"/>
      <point x="70" y="-49" type="curve" smooth="yes"/>
      <point x="70" y="-81"/>
      <point x="109" y="-103"/>
      <point x="184" y="-109" type="curve" smooth="yes"/>
      <point x="242" y="-114"/>
      <point x="251" y="-113"/>
      <point x="251" y="-123" type="curve" smooth="yes"/>
      <point x="251" y="-134"/>
      <point x="226" y="-139"/>
      <point x="194" y="-139" type="curve" smooth="yes"/>
      <point x="153" y="-139"/>
      <point x="103" y="-122"/>
      <point x="72" y="-98" type="curve"/>
      <point x="38" y="-148" type="line"/>
      <point x="61" y="-171"/>
      <point x="121" y="-199"/>
      <point x="191" y="-199" type="curve" smooth="yes"/>
    </contour>
    <contour>
      <point x="191" y="-11" type="move" name="_bottom"/>
    </contour>
  </outline>
</glyph>
<glyph name="uni0328" format="1">
  <advance width="365"/>
  <unicode hex="0328"/>
  <outline>
    <contour>
      <point x="181" y="19" type="line"/>
      <point x="124" y="10"/>
      <point x="58" y="-25"/>
      <point x="58" y="-96" type="curve" smooth="yes"/>
      <point x="58" y="-148"/>
      <point x="115" y="-174"/>
      <point x="176" y="-174" type="curve" smooth="yes"/>
      <point x="234" y="-174"/>
      <point x="274" y="-156"/>
      <point x="308" y="-136" type="curve"/>
      <point x="285" y="-77" type="line"/>
      <point x="260" y="-93"/>
      <point x="226" y="-108"/>
      <point x="187" y="-108" type="curve" smooth="yes"/>
      <point x="158" y="-108"/>
      <point x="126" y="-100"/>
      <point x="126" y="-77" type="curve" smooth="yes"/>
      <point x="126" y="-39"/>
      <point x="175" y="-13"/>
      <point x="211" y="-6" type="curve"/>
    </contour>
    <contour>
      <point x="211" y="-6" type="move" name="_ogonek"/>
    </contour>
  </outline>
</glyph>
<glyph name="uni0337" format="1">
  <advance width="401"/>
  <unicode hex="0337"/>
  <outline>
    <contour>
      <point x="330" y="391" type="line"/>
      <point x="241" y="391" type="line"/>
      <point x="72" y="67" type="line"/>
      <point x="161" y="67" type="line"/>
    </contour>
  </outline>
</glyph>
<glyph name="uni0411" format="1">
  <advance width="962"/>
  <unicode hex="0411"/>
  <outline>
    <contour>
      <point x="284" y="276" type="line"/>
      <point x="284" y="186" type="line"/>
      <point x="748" y="186" type="line" smooth="yes"/>
      <point x="795" y="188"/>
      <point x="829" y="172"/>
      <point x="829" y="142" type="curve" smooth="yes"/>
      <point x="829" y="112"/>
      <point x="794" y="96"/>
      <point x="745" y="96" type="curve" smooth="yes"/>
      <point x="51" y="96" type="line"/>
      <point x="51" y="0" type="line"/>
      <point x="744" y="0" type="line" smooth="yes"/>
      <point x="881" y="0"/>
      <point x="950" y="55"/>
      <point x="950" y="143" type="curve" smooth="yes"/>
      <point x="950" y="229"/>
      <point x="889" y="279"/>
      <point x="752" y="278" type="curve"/>
    </contour>
    <contour>
      <point x="819" y="424" type="line"/>
      <point x="819" y="330" type="line"/>
      <point x="927" y="330" type="line"/>
      <point x="927" y="520" type="line"/>
      <point x="51" y="520" type="line"/>
      <point x="51" y="424" type="line"/>
    </contour>
    <contour>
      <point x="326" y="53" type="line"/>
      <point x="326" y="464" type="line"/>
      <point x="203" y="464" type="line"/>
      <point x="203" y="53" type="line"/>
    </contour>
  </outline>
</glyph>
<glyph name="quotedblleft" format="1">
  <advance width="524"/>
  <unicode hex="201C"/>
  <outline>
    <contour>
      <point x="421" y="322"/>
      <point x="456" y="343"/>
      <point x="456" y="378" type="curve" smooth="yes"/>
      <point x="456" y="408"/>
      <point x="428" y="431"/>
      <point x="385" y="431" type="curve" smooth="yes"/>
      <point x="370" y="431"/>
      <point x="351" y="429"/>
      <point x="342" y="426" type="curve"/>
      <point x="346" y="464"/>
      <point x="394" y="504"/>
      <point x="435" y="542" type="curve"/>
      <point x="406" y="571" type="line"/>
      <point x="344" y="522"/>
      <point x="281" y="463"/>
      <point x="281" y="408" type="curve" smooth="yes"/>
      <point x="281" y="353"/>
      <point x="313" y="322"/>
      <point x="369" y="322" type="curve" smooth="yes"/>
    </contour>
    <contour>
      <point x="203" y="324"/>
      <point x="238" y="345"/>
      <point x="238" y="380" type="curve" smooth="yes"/>
      <point x="238" y="410"/>
      <point x="210" y="433"/>
      <point x="167" y="433" type="curve" smooth="yes"/>
      <point x="152" y="433"/>
      <point x="133" y="431"/>
      <point x="124" y="428" type="curve"/>
      <point x="128" y="466"/>
      <point x="176" y="506"/>
      <point x="217" y="544" type="curve"/>
      <point x="188" y="573" type="line"/>
      <point x="126" y="524"/>
      <point x="63" y="466"/>
      <point x="63" y="410" type="curve" smooth="yes"/>
      <point x="63" y="355"/>
      <point x="95" y="324"/>
      <point x="151" y="324" type="curve" smooth="yes"/>
    </contour>
  </outline>
</glyph>
<glyph name="fraction" format="1">
  <advance width="205"/>
  <unicode hex="2044"/>
  <outline>
    <contour>
      <point x="-114" y="-52" type="line"/>
      <point x="-40" y="-85" type="line"/>
      <point x="135" y="227" type="line"/>
      <point x="330" y="527" type="line"/>
      <point x="256" y="560" type="line"/>
      <point x="81" y="249" type="line"/>
    </contour>
  </outline>
</glyph>
<glyph name="Euro" format="1">
  <advance width="949"/>
  <unicode hex="20AC"/>
  <outline>
    <contour>
      <point x="672" y="-10"/>
      <point x="785" y="22"/>
      <point x="872" y="86" type="curve"/>
      <point x="823" y="167" type="line"/>
      <point x="755" y="114"/>
      <point x="648" y="80"/>
      <point x="527" y="80" type="curve" smooth="yes"/>
      <point x="388" y="80"/>
      <point x="274" y="123"/>
      <point x="274" y="234" type="curve" smooth="yes"/>
      <point x="274" y="352"/>
      <point x="401" y="392"/>
      <point x="525" y="392" type="curve" smooth="yes"/>
      <point x="636" y="392"/>
      <point x="733" y="361"/>
      <point x="816" y="283" type="curve"/>
      <point x="869" y="286" type="line"/>
      <point x="868" y="470" type="line"/>
      <point x="770" y="470" type="line"/>
      <point x="771" y="345" type="line"/>
      <point x="826" y="334" type="line"/>
      <point x="755" y="425"/>
      <point x="644" y="480"/>
      <point x="493" y="480" type="curve" smooth="yes"/>
      <point x="326" y="480"/>
      <point x="153" y="401"/>
      <point x="153" y="234" type="curve" smooth="yes"/>
      <point x="153" y="75"/>
      <point x="325" y="-10"/>
      <point x="527" y="-10" type="curve" smooth="yes"/>
    </contour>
    <contour>
      <point x="52" y="206" type="line"/>
      <point x="52" y="141" type="line"/>
      <point x="710" y="141" type="line"/>
      <point x="710" y="206" type="line"/>
    </contour>
    <contour>
      <point x="52" y="311" type="line"/>
      <point x="52" y="246" type="line"/>
      <point x="710" y="246" type="line"/>
      <point x="710" y="311" type="line"/>
    </contour>
  </outline>
</glyph>
<glyph name="R.alt" format="1">
  <advance width="916"/>
  <outline>
    <contour>
      <point x="1479" y="-285"/>
      <point x="1608" y="-203"/>
      <point x="1689" y="-140" type="curve"/>
      <point x="1633" y="-61" type="line"/>
      <point x="1561" y="-113"/>
      <point x="1464" y="-181"/>
      <point x="1284" y="-181" type="curve" smooth="yes"/>
      <point x="1100" y="-181"/>
      <point x="977" y="-115"/>
      <point x="839" y="15" type="curve" smooth="yes"/>
      <point x="715" y="131"/>
      <point x="633" y="223"/>
      <point x="465" y="223" type="curve" smooth="yes"/>
      <point x="250" y="223" type="line"/>
      <point x="251" y="202" type="line"/>
      <point x="375" y="202" type="line" smooth="yes"/>
      <point x="488" y="202"/>
      <point x="566" y="119"/>
      <point x="719" y="-26" type="curve" smooth="yes"/>
      <point x="873" y="-172"/>
      <point x="1060" y="-285"/>
      <point x="1288" y="-285" type="curve" smooth="yes"/>
    </contour>
    <contour>
      <point x="482" y="0" type="line"/>
      <point x="482" y="96" type="line"/>
      <point x="51" y="98" type="line"/>
      <point x="51" y="1" type="line"/>
    </contour>
    <contour>
      <point x="328" y="58" type="line"/>
      <point x="328" y="462" type="line"/>
      <point x="205" y="462" type="line"/>
      <point x="205" y="58" type="line"/>
    </contour>
    <contour>
      <point x="636" y="211" type="line" smooth="yes"/>
      <point x="763" y="212"/>
      <point x="843" y="262"/>
      <point x="843" y="364" type="curve" smooth="yes"/>
      <point x="843" y="466"/>
      <point x="760" y="520"/>
      <point x="626" y="520" type="curve" smooth="yes"/>
      <point x="51" y="520" type="line"/>
      <point x="51" y="424" type="line"/>
      <point x="629" y="424" type="line" smooth="yes"/>
      <point x="688" y="424"/>
      <point x="721" y="404"/>
      <point x="721" y="364" type="curve" smooth="yes"/>
      <point x="721" y="319"/>
      <point x="688" y="302"/>
      <point x="629" y="301" type="curve" smooth="yes"/>
      <point x="229" y="297" type="line"/>
      <point x="229" y="207" type="line"/>
    </contour>
    <contour>
      <point x="479" y="520" type="move" name="top"/>
    </contour>
    <contour>
      <point x="479" y="0" type="move" name="bottom"/>
    </contour>
  </outline>
</glyph>
<glyph name="W.bold" format="1">
  <advance width="1311"/>
  <outline>
    <contour>
      <point x="420" y="-10" type="line"/>
      <point x="457" y="89" type="line"/>
      <point x="241" y="461" type="line"/>
      <point x="113" y="461" type="line"/>
      <point x="376" y="-10" type="line"/>
    </contour>
    <contour>
      <point x="440" y="-10" type="line"/>
      <point x="688" y="411" type="line"/>
      <point x="669" y="510" type="line"/>
      <point x="629" y="510" type="line"/>
      <point x="370" y="42" type="line"/>
      <point x="393" y="-10" type="line"/>
    </contour>
    <contour>
      <point x="917" y="-10" type="line"/>
      <point x="952" y="89" type="line"/>
      <point x="693" y="510" type="line"/>
      <point x="649" y="510" type="line"/>
      <point x="607" y="403" type="line"/>
      <point x="873" y="-10" type="line"/>
    </contour>
    <contour>
      <point x="937" y="-10" type="line"/>
      <point x="1187" y="461" type="line"/>
      <point x="1077" y="461" type="line"/>
      <point x="867" y="42" type="line"/>
      <point x="890" y="-10" type="line"/>
    </contour>
    <contour>
      <point x="957" y="520" type="line"/>
      <point x="957" y="424" type="line"/>
      <point x="1311" y="424" type="line"/>
      <point x="1311" y="520" type="line"/>
    </contour>
    <contour>
      <point x="0" y="424" type="line"/>
      <point x="354" y="424" type="line"/>
      <point x="354" y="520" type="line"/>
      <point x="0" y="520" type="line"/>
    </contour>
    <contour>
      <point x="642" y="520" type="move" name="top"/>
    </contour>
    <contour>
      <point x="637" y="0" type="move" name="bottom"/>
    </contour>
  </outline>
</glyph>
<glyph name="a.alt2" format="1">
  <advance width="848"/>
  <outline>
    <contour>
      <point x="453" y="-12"/>
      <point x="575" y="60"/>
      <point x="692" y="138" type="curve"/>
      <point x="692" y="217" type="line"/>
      <point x="564" y="134"/>
      <point x="423" y="85"/>
      <point x="319" y="85" type="curve" smooth="yes"/>
      <point x="223" y="85"/>
      <point x="170" y="117"/>
      <point x="170" y="173" type="curve" smooth="yes"/>
      <point x="170" y="230"/>
      <point x="239" y="271"/>
      <point x="351" y="271" type="curve" smooth="yes"/>
      <point x="466" y="271"/>
      <point x="600" y="247"/>
      <point x="686" y="210" type="curve"/>
      <point x="686" y="286" type="line"/>
      <point x="606" y="322"/>
      <point x="486" y="366"/>
      <point x="335" y="366" type="curve" smooth="yes"/>
      <point x="180" y="366"/>
      <point x="50" y="291"/>
      <point x="50" y="167" type="curve" smooth="yes"/>
      <point x="50" y="49"/>
      <point x="155" y="-12"/>
      <point x="298" y="-12" type="curve" smooth="yes"/>
    </contour>
    <contour>
      <point x="799" y="-9"/>
      <point x="825" y="3"/>
      <point x="846" y="17" type="curve"/>
      <point x="819" y="96" type="line"/>
      <point x="808" y="90"/>
      <point x="797" y="86"/>
      <point x="782" y="86" type="curve" smooth="yes"/>
      <point x="762" y="86"/>
      <point x="743" y="98"/>
      <point x="743" y="139" type="curve" smooth="yes"/>
      <point x="743" y="368" type="line"/>
      <point x="626" y="347" type="line"/>
      <point x="626" y="118" type="line" smooth="yes"/>
      <point x="626" y="34"/>
      <point x="682" y="-9"/>
      <point x="752" y="-9" type="curve" smooth="yes"/>
    </contour>
    <contour>
      <point x="832" y="12" type="move" name="ogonek"/>
    </contour>
    <contour>
      <point x="403" y="-22" type="move" name="bottom"/>
    </contour>
    <contour>
      <point x="400" y="377" type="move" name="top"/>
    </contour>
  </outline>
</glyph>
<glyph name="am" format="1">
  <advance width="1043"/>
  <outline>
    <contour>
      <point x="916" y="201"/>
      <point x="907" y="211"/>
      <point x="888" y="209" type="curve" smooth="yes"/>
      <point x="864" y="207"/>
      <point x="823" y="181"/>
      <point x="773" y="146" type="curve"/>
      <point x="782" y="124"/>
      <point x="793" y="104"/>
      <point x="807" y="90" type="curve"/>
      <point x="845" y="117"/>
      <point x="878" y="137"/>
      <point x="895" y="138" type="curve" smooth="yes"/>
      <point x="900" y="139"/>
      <point x="906" y="139"/>
      <point x="911" y="138" type="curve"/>
      <point x="916" y="154"/>
      <point x="919" y="169"/>
      <point x="918" y="182" type="curve" smooth="yes"/>
    </contour>
    <contour>
      <point x="769" y="358"/>
      <point x="765" y="344"/>
      <point x="762" y="329" type="curve"/>
      <point x="762" y="330"/>
      <point x="762" y="330"/>
      <point x="762" y="331" type="curve"/>
      <point x="767" y="334"/>
      <point x="773" y="337"/>
      <point x="778" y="340" type="curve" smooth="yes"/>
      <point x="800" y="352"/>
      <point x="844" y="378"/>
      <point x="844" y="428" type="curve"/>
      <point x="831" y="413"/>
      <point x="783" y="398"/>
      <point x="773" y="372" type="curve" smooth="yes"/>
    </contour>
    <contour>
      <point x="874" y="70"/>
      <point x="896" y="100"/>
      <point x="908" y="131" type="curve"/>
      <point x="888" y="127"/>
      <point x="855" y="107"/>
      <point x="817" y="80" type="curve"/>
      <point x="827" y="72"/>
      <point x="839" y="67"/>
      <point x="852" y="65" type="curve"/>
    </contour>
    <contour>
      <point x="657" y="40"/>
      <point x="683" y="29"/>
      <point x="709" y="18" type="curve"/>
      <point x="733" y="36"/>
      <point x="758" y="55"/>
      <point x="781" y="71" type="curve"/>
      <point x="766" y="85"/>
      <point x="754" y="104"/>
      <point x="745" y="127" type="curve"/>
      <point x="711" y="103"/>
      <point x="673" y="77"/>
      <point x="633" y="51" type="curve"/>
    </contour>
    <contour>
      <point x="820" y="52"/>
      <point x="805" y="56"/>
      <point x="792" y="63" type="curve"/>
      <point x="770" y="47"/>
      <point x="746" y="30"/>
      <point x="722" y="13" type="curve"/>
      <point x="767" y="-5"/>
      <point x="809" y="-17"/>
      <point x="840" y="-14" type="curve" smooth="yes"/>
      <point x="874" y="-10"/>
      <point x="884" y="6"/>
      <point x="882" y="20" type="curve" smooth="yes"/>
      <point x="882" y="27"/>
      <point x="880" y="32"/>
      <point x="880" y="36" type="curve" smooth="yes"/>
      <point x="879" y="44"/>
      <point x="880" y="47"/>
      <point x="880" y="47" type="curve"/>
      <point x="916" y="71" type="line"/>
      <point x="923" y="68"/>
      <point x="927" y="62"/>
      <point x="928" y="49" type="curve" smooth="yes"/>
      <point x="931" y="23"/>
      <point x="907" y="-15"/>
      <point x="830" y="-23" type="curve" smooth="yes"/>
      <point x="799" y="-26"/>
      <point x="755" y="-14"/>
      <point x="708" y="3" type="curve"/>
      <point x="694" y="-8"/>
      <point x="680" y="-18"/>
      <point x="666" y="-27" type="curve"/>
      <point x="751" y="-50"/>
      <point x="832" y="-67"/>
      <point x="878" y="-62" type="curve" smooth="yes"/>
      <point x="944" y="-56"/>
      <point x="965" y="-3"/>
      <point x="960" y="46" type="curve" smooth="yes"/>
      <point x="957" y="72"/>
      <point x="947" y="98"/>
      <point x="934" y="115" type="curve"/>
      <point x="913" y="84"/>
      <point x="878" y="58"/>
      <point x="836" y="54" type="curve" smooth="yes"/>
    </contour>
    <contour>
      <point x="466" y="-6"/>
      <point x="468" y="-13"/>
      <point x="469" y="-19" type="curve"/>
      <point x="487" y="-13"/>
      <point x="504" y="-6"/>
      <point x="521" y="2" type="curve"/>
      <point x="502" y="7"/>
      <point x="483" y="13"/>
      <point x="465" y="18" type="curve"/>
      <point x="465" y="12"/>
      <point x="465" y="7"/>
      <point x="466" y="1" type="curve" smooth="yes"/>
    </contour>
    <contour>
      <point x="552" y="69"/>
      <point x="508" y="89"/>
      <point x="494" y="88" type="curve"/>
      <point x="479" y="75"/>
      <point x="469" y="55"/>
      <point x="466" y="32" type="curve"/>
      <point x="489" y="25"/>
      <point x="513" y="18"/>
      <point x="538" y="10" type="curve"/>
      <point x="561" y="21"/>
      <point x="583" y="33"/>
      <point x="604" y="46" type="curve"/>
    </contour>
    <contour>
      <point x="572" y="-75"/>
      <point x="603" y="-57"/>
      <point x="639" y="-32" type="curve"/>
      <point x="605" y="-23"/>
      <point x="570" y="-13"/>
      <point x="537" y="-3" type="curve"/>
      <point x="516" y="-13"/>
      <point x="494" y="-23"/>
      <point x="473" y="-30" type="curve"/>
      <point x="486" y="-60"/>
      <point x="512" y="-82"/>
      <point x="554" y="-77" type="curve" smooth="yes"/>
    </contour>
    <contour>
      <point x="668" y="18"/>
      <point x="641" y="30"/>
      <point x="616" y="41" type="curve"/>
      <point x="595" y="28"/>
      <point x="574" y="16"/>
      <point x="553" y="5" type="curve"/>
      <point x="586" y="-4"/>
      <point x="619" y="-14"/>
      <point x="652" y="-23" type="curve"/>
      <point x="666" y="-14"/>
      <point x="680" y="-3"/>
      <point x="695" y="8" type="curve"/>
    </contour>
    <contour>
      <point x="516" y="124"/>
      <point x="544" y="143"/>
      <point x="568" y="172" type="curve"/>
      <point x="558" y="212"/>
      <point x="540" y="246"/>
      <point x="521" y="273" type="curve"/>
      <point x="492" y="216"/>
      <point x="459" y="164"/>
      <point x="424" y="131" type="curve"/>
      <point x="442" y="123"/>
      <point x="462" y="119"/>
      <point x="483" y="121" type="curve" smooth="yes"/>
    </contour>
    <contour>
      <point x="579" y="400"/>
      <point x="559" y="351"/>
      <point x="536" y="304" type="curve"/>
      <point x="548" y="289"/>
      <point x="559" y="273"/>
      <point x="568" y="254" type="curve"/>
      <point x="570" y="318"/>
      <point x="579" y="386"/>
      <point x="598" y="444" type="curve"/>
    </contour>
    <contour>
      <point x="502" y="297"/>
      <point x="495" y="304"/>
      <point x="489" y="310" type="curve"/>
      <point x="467" y="262"/>
      <point x="431" y="223"/>
      <point x="399" y="219" type="curve" smooth="yes"/>
      <point x="380" y="217"/>
      <point x="366" y="236"/>
      <point x="364" y="256" type="curve" smooth="yes"/>
      <point x="363" y="270"/>
      <point x="364" y="281"/>
      <point x="372" y="291" type="curve"/>
      <point x="407" y="311" type="line"/>
      <point x="409" y="312"/>
      <point x="410" y="310"/>
      <point x="411" y="308" type="curve" smooth="yes"/>
      <point x="412" y="297"/>
      <point x="386" y="259"/>
      <point x="388" y="241" type="curve" smooth="yes"/>
      <point x="388" y="234"/>
      <point x="392" y="230"/>
      <point x="403" y="231" type="curve" smooth="yes"/>
      <point x="429" y="234"/>
      <point x="456" y="278"/>
      <point x="472" y="327" type="curve"/>
      <point x="446" y="349"/>
      <point x="426" y="360"/>
      <point x="426" y="360" type="curve"/>
      <point x="376" y="355"/>
      <point x="337" y="302"/>
      <point x="343" y="246" type="curve" smooth="yes"/>
      <point x="347" y="202"/>
      <point x="374" y="160"/>
      <point x="411" y="138" type="curve"/>
      <point x="445" y="173"/>
      <point x="478" y="228"/>
      <point x="508" y="289" type="curve"/>
    </contour>
    <contour>
      <point x="513" y="-161"/>
      <point x="544" y="-148"/>
      <point x="589" y="-121" type="curve"/>
      <point x="689" y="-146"/>
      <point x="756" y="-155"/>
      <point x="803" y="-150" type="curve" smooth="yes"/>
      <point x="903" y="-140"/>
      <point x="958" y="-73"/>
      <point x="970" y="2" type="curve"/>
      <point x="958" y="-34"/>
      <point x="927" y="-65"/>
      <point x="873" y="-71" type="curve" smooth="yes"/>
      <point x="823" y="-76"/>
      <point x="740" y="-59"/>
      <point x="653" y="-36" type="curve"/>
      <point x="613" y="-62"/>
      <point x="578" y="-82"/>
      <point x="555" y="-84" type="curve" smooth="yes"/>
      <point x="505" y="-89"/>
      <point x="473" y="-66"/>
      <point x="457" y="-36" type="curve"/>
      <point x="435" y="-43"/>
      <point x="412" y="-48"/>
      <point x="391" y="-50" type="curve" smooth="yes"/>
      <point x="318" y="-57"/>
      <point x="284" y="-27"/>
      <point x="281" y="5" type="curve" smooth="yes"/>
      <point x="277" y="39"/>
      <point x="296" y="64"/>
      <point x="331" y="68" type="curve" smooth="yes"/>
      <point x="344" y="69"/>
      <point x="389" y="56"/>
      <point x="448" y="38" type="curve"/>
      <point x="455" y="69"/>
      <point x="475" y="94"/>
      <point x="506" y="97" type="curve" smooth="yes"/>
      <point x="526" y="99"/>
      <point x="570" y="80"/>
      <point x="621" y="57" type="curve"/>
      <point x="664" y="83"/>
      <point x="705" y="111"/>
      <point x="742" y="137" type="curve"/>
      <point x="737" y="152"/>
      <point x="734" y="168"/>
      <point x="732" y="185" type="curve" smooth="yes"/>
      <point x="728" y="225"/>
      <point x="726" y="263"/>
      <point x="734" y="308" type="curve"/>
      <point x="715" y="268"/>
      <point x="688" y="172"/>
      <point x="685" y="139" type="curve"/>
      <point x="682" y="133"/>
      <point x="669" y="119"/>
      <point x="659" y="117" type="curve" smooth="yes"/>
      <point x="654" y="117"/>
      <point x="653" y="118"/>
      <point x="653" y="118" type="curve"/>
      <point x="650" y="121"/>
      <point x="648" y="128"/>
      <point x="648" y="137" type="curve" smooth="yes"/>
      <point x="643" y="181"/>
      <point x="647" y="264"/>
      <point x="666" y="327" type="curve"/>
      <point x="645" y="285"/>
      <point x="625" y="238"/>
      <point x="600" y="198" type="curve"/>
      <point x="602" y="172"/>
      <point x="607" y="147"/>
      <point x="613" y="123" type="curve"/>
      <point x="613" y="123"/>
      <point x="602" y="107"/>
      <point x="590" y="106" type="curve" smooth="yes"/>
      <point x="586" y="106"/>
      <point x="583" y="106"/>
      <point x="579" y="107" type="curve"/>
      <point x="577" y="120"/>
      <point x="574" y="135"/>
      <point x="572" y="150" type="curve"/>
      <point x="572" y="153"/>
      <point x="571" y="157"/>
      <point x="571" y="160" type="curve"/>
      <point x="545" y="132"/>
      <point x="514" y="112"/>
      <point x="473" y="108" type="curve" smooth="yes"/>
      <point x="449" y="105"/>
      <point x="427" y="108"/>
      <point x="407" y="116" type="curve"/>
      <point x="389" y="103"/>
      <point x="371" y="95"/>
      <point x="352" y="93" type="curve" smooth="yes"/>
      <point x="280" y="85"/>
      <point x="233" y="144"/>
      <point x="226" y="220" type="curve" smooth="yes"/>
      <point x="214" y="331"/>
      <point x="296" y="468"/>
      <point x="412" y="480" type="curve" smooth="yes"/>
      <point x="461" y="485"/>
      <point x="503" y="458"/>
      <point x="508" y="405" type="curve" smooth="yes"/>
      <point x="510" y="384"/>
      <point x="507" y="362"/>
      <point x="500" y="340" type="curve"/>
      <point x="508" y="333"/>
      <point x="516" y="327"/>
      <point x="523" y="319" type="curve"/>
      <point x="599" y="477"/>
      <point x="662" y="661"/>
      <point x="707" y="666" type="curve" smooth="yes"/>
      <point x="764" y="672" type="line"/>
      <point x="762" y="682"/>
      <point x="759" y="693"/>
      <point x="753" y="702" type="curve" smooth="yes"/>
      <point x="739" y="727"/>
      <point x="711" y="742"/>
      <point x="682" y="739" type="curve" smooth="yes"/>
      <point x="622" y="733" type="line" smooth="yes"/>
      <point x="553" y="725"/>
      <point x="515" y="648"/>
      <point x="453" y="508" type="curve"/>
      <point x="421" y="537"/>
      <point x="377" y="552"/>
      <point x="328" y="547" type="curve" smooth="yes"/>
      <point x="165" y="531"/>
      <point x="61" y="353"/>
      <point x="76" y="206" type="curve" smooth="yes"/>
      <point x="82" y="146"/>
      <point x="106" y="96"/>
      <point x="141" y="62" type="curve"/>
      <point x="132" y="41"/>
      <point x="128" y="17"/>
      <point x="131" y="-9" type="curve" smooth="yes"/>
      <point x="137" y="-75"/>
      <point x="200" y="-142"/>
      <point x="321" y="-129" type="curve" smooth="yes"/>
      <point x="331" y="-128"/>
      <point x="342" y="-127"/>
      <point x="353" y="-125" type="curve"/>
      <point x="387" y="-155"/>
      <point x="434" y="-169"/>
      <point x="485" y="-164" type="curve" smooth="yes"/>
    </contour>
    <contour>
      <point x="302" y="48"/>
      <point x="296" y="28"/>
      <point x="298" y="10" type="curve" smooth="yes"/>
      <point x="300" y="-18"/>
      <point x="322" y="-46"/>
      <point x="384" y="-39" type="curve" smooth="yes"/>
      <point x="406" y="-37"/>
      <point x="429" y="-32"/>
      <point x="453" y="-25" type="curve"/>
      <point x="449" y="-16"/>
      <point x="447" y="-7"/>
      <point x="446" y="2" type="curve" smooth="yes"/>
      <point x="446" y="9"/>
      <point x="445" y="17"/>
      <point x="446" y="24" type="curve"/>
      <point x="381" y="43"/>
      <point x="329" y="57"/>
      <point x="309" y="55" type="curve"/>
    </contour>
    <contour>
      <point x="798" y="293"/>
      <point x="778" y="286"/>
      <point x="755" y="275" type="curve"/>
      <point x="755" y="256"/>
      <point x="755" y="237"/>
      <point x="757" y="219" type="curve" smooth="yes"/>
      <point x="759" y="197"/>
      <point x="763" y="176"/>
      <point x="770" y="156" type="curve"/>
      <point x="826" y="195"/>
      <point x="872" y="225"/>
      <point x="902" y="228" type="curve" smooth="yes"/>
      <point x="925" y="230"/>
      <point x="940" y="224"/>
      <point x="948" y="213" type="curve"/>
      <point x="932" y="268"/>
      <point x="882" y="301"/>
      <point x="818" y="295" type="curve" smooth="yes"/>
    </contour>
    <contour>
      <point x="426" y="375"/>
      <point x="453" y="368"/>
      <point x="479" y="354" type="curve"/>
      <point x="483" y="375"/>
      <point x="485" y="395"/>
      <point x="483" y="413" type="curve" smooth="yes"/>
      <point x="479" y="448"/>
      <point x="460" y="474"/>
      <point x="422" y="470" type="curve" smooth="yes"/>
      <point x="335" y="461"/>
      <point x="246" y="335"/>
      <point x="257" y="228" type="curve" smooth="yes"/>
      <point x="264" y="160"/>
      <point x="312" y="106"/>
      <point x="383" y="113" type="curve"/>
      <point x="387" y="115"/>
      <point x="390" y="118"/>
      <point x="394" y="121" type="curve"/>
      <point x="346" y="145"/>
      <point x="315" y="194"/>
      <point x="310" y="243" type="curve" smooth="yes"/>
      <point x="304" y="302"/>
      <point x="334" y="365"/>
      <point x="398" y="372" type="curve" smooth="yes"/>
    </contour>
    <contour>
      <point x="686" y="395"/>
      <point x="671" y="222"/>
      <point x="676" y="170" type="curve"/>
      <point x="718" y="329"/>
      <point x="771" y="427"/>
      <point x="802" y="441" type="curve"/>
      <point x="843" y="446" type="line"/>
      <point x="842" y="452"/>
      <point x="839" y="460"/>
      <point x="835" y="470" type="curve" smooth="yes"/>
      <point x="830" y="483"/>
      <point x="820" y="500"/>
      <point x="805" y="503" type="curve" smooth="yes"/>
      <point x="793" y="506"/>
      <point x="772" y="502"/>
      <point x="742" y="465" type="curve" smooth="yes"/>
    </contour>
    <contour>
      <point x="629" y="546"/>
      <point x="584" y="376"/>
      <point x="598" y="215" type="curve"/>
      <point x="643" y="290"/>
      <point x="677" y="394"/>
      <point x="720" y="469" type="curve" smooth="yes"/>
      <point x="738" y="500"/>
      <point x="751" y="519"/>
      <point x="762" y="527" type="curve"/>
      <point x="805" y="531" type="line"/>
      <point x="801" y="552"/>
      <point x="791" y="570"/>
      <point x="776" y="582" type="curve" smooth="yes"/>
      <point x="766" y="590"/>
      <point x="755" y="595"/>
      <point x="743" y="598" type="curve"/>
      <point x="755" y="612"/>
      <point x="765" y="630"/>
      <point x="765" y="653" type="curve"/>
      <point x="754" y="638"/>
      <point x="720" y="627"/>
      <point x="702" y="611" type="curve" smooth="yes"/>
    </contour>
  </outline>
</glyph>
<glyph name="d.alt" format="1">
  <advance width="879"/>
  <outline>
    <contour>
      <point x="453" y="-12"/>
      <point x="575" y="60"/>
      <point x="692" y="138" type="curve"/>
      <point x="692" y="217" type="line"/>
      <point x="564" y="134"/>
      <point x="423" y="85"/>
      <point x="319" y="85" type="curve" smooth="yes"/>
      <point x="223" y="85"/>
      <point x="170" y="117"/>
      <point x="170" y="173" type="curve" smooth="yes"/>
      <point x="170" y="230"/>
      <point x="239" y="271"/>
      <point x="351" y="271" type="curve" smooth="yes"/>
      <point x="466" y="271"/>
      <point x="600" y="247"/>
      <point x="686" y="210" type="curve"/>
      <point x="686" y="286" type="line"/>
      <point x="606" y="322"/>
      <point x="486" y="366"/>
      <point x="335" y="366" type="curve" smooth="yes"/>
      <point x="180" y="366"/>
      <point x="50" y="291"/>
      <point x="50" y="167" type="curve" smooth="yes"/>
      <point x="50" y="49"/>
      <point x="155" y="-12"/>
      <point x="298" y="-12" type="curve" smooth="yes"/>
    </contour>
    <contour>
      <point x="844" y="-16"/>
      <point x="877" y="45"/>
      <point x="877" y="115" type="curve" smooth="yes"/>
      <point x="877" y="163" type="line"/>
      <point x="819" y="163" type="line"/>
      <point x="819" y="114" type="line" smooth="yes"/>
      <point x="819" y="82"/>
      <point x="808" y="58"/>
      <point x="781" y="58" type="curve" smooth="yes"/>
      <point x="749" y="58"/>
      <point x="743" y="85"/>
      <point x="743" y="121" type="curve" smooth="yes"/>
      <point x="743" y="520" type="line"/>
      <point x="626" y="520" type="line"/>
      <point x="626" y="123" type="line" smooth="yes"/>
      <point x="626" y="40"/>
      <point x="670" y="-16"/>
      <point x="755" y="-16" type="curve" smooth="yes"/>
    </contour>
    <contour>
      <point x="722" y="430" type="line"/>
      <point x="722" y="520" type="line"/>
      <point x="496" y="520" type="line"/>
      <point x="496" y="430" type="line"/>
    </contour>
    <contour>
      <point x="372" y="2" type="move" name="bottom"/>
    </contour>
    <contour>
      <point x="372" y="355" type="move" name="top"/>
    </contour>
    <contour>
      <point x="806" y="357" type="move" name="topright"/>
    </contour>
    <contour>
      <point x="396" y="179" type="move" name="center"/>
    </contour>
  </outline>
</glyph>
<glyph name="f.alt" format="1">
  <advance width="576"/>
  <outline>
    <contour>
      <point x="128" y="391"/>
      <point x="163" y="371"/>
      <point x="196" y="360" type="curve"/>
      <point x="196" y="50" type="line"/>
      <point x="311" y="50" type="line"/>
      <point x="311" y="348" type="line"/>
      <point x="279" y="351"/>
      <point x="248" y="375"/>
      <point x="248" y="399" type="curve" smooth="yes"/>
      <point x="248" y="434"/>
      <point x="279" y="455"/>
      <point x="357" y="455" type="curve" smooth="yes"/>
      <point x="420" y="455"/>
      <point x="474" y="438"/>
      <point x="522" y="420" type="curve"/>
      <point x="555" y="511" type="line"/>
      <point x="483" y="535"/>
      <point x="417" y="555"/>
      <point x="316" y="555" type="curve" smooth="yes"/>
      <point x="201" y="555"/>
      <point x="128" y="502"/>
      <point x="128" y="440" type="curve" smooth="yes"/>
    </contour>
    <contour>
      <point x="66" y="357" type="line"/>
      <point x="66" y="267" type="line"/>
      <point x="452" y="267" type="line"/>
      <point x="452" y="357" type="line"/>
    </contour>
    <contour>
      <point x="66" y="0" type="line"/>
      <point x="452" y="0" type="line"/>
      <point x="452" y="90" type="line"/>
      <point x="66" y="90" type="line"/>
    </contour>
    <contour>
      <point x="355" y="801" type="move" name="top"/>
    </contour>
    <contour>
      <point x="355" y="0" type="move" name="bottom"/>
    </contour>
  </outline>
</glyph>
<glyph name="four.dnom" format="1">
  <advance width="398"/>
  <outline>
    <contour>
      <point x="344" y="279" type="line"/>
      <point x="259" y="279" type="line"/>
      <point x="18" y="115" type="line"/>
      <point x="76" y="91" type="line"/>
    </contour>
    <contour>
      <point x="419" y="47" type="line"/>
      <point x="419" y="115" type="line"/>
      <point x="18" y="115" type="line"/>
      <point x="18" y="47" type="line"/>
    </contour>
    <contour>
      <point x="259" y="-9" type="line"/>
      <point x="339" y="-9" type="line"/>
      <point x="339" y="279" type="line"/>
      <point x="259" y="279" type="line"/>
    </contour>
  </outline>
</glyph>
<glyph name="g.alt" format="1">
  <advance width="823"/>
  <outline>
    <contour>
      <point x="601" y="-210"/>
      <point x="743" y="-126"/>
      <point x="742" y="42" type="curve" smooth="yes"/>
      <point x="742" y="385" type="line"/>
      <point x="627" y="358" type="line"/>
      <point x="627" y="43" type="line" smooth="yes"/>
      <point x="627" y="-50"/>
      <point x="542" y="-109"/>
      <point x="412" y="-109" type="curve" smooth="yes"/>
      <point x="314" y="-109"/>
      <point x="194" y="-79"/>
      <point x="126" y="-43" type="curve"/>
      <point x="85" y="-136" type="line"/>
      <point x="165" y="-175"/>
      <point x="297" y="-210"/>
      <point x="424" y="-210" type="curve" smooth="yes"/>
    </contour>
    <contour>
      <point x="453" y="-12"/>
      <point x="575" y="60"/>
      <point x="692" y="138" type="curve"/>
      <point x="692" y="217" type="line"/>
      <point x="564" y="134"/>
      <point x="423" y="85"/>
      <point x="319" y="85" type="curve" smooth="yes"/>
      <point x="223" y="85"/>
      <point x="170" y="117"/>
      <point x="170" y="173" type="curve" smooth="yes"/>
      <point x="170" y="230"/>
      <point x="239" y="271"/>
      <point x="351" y="271" type="curve" smooth="yes"/>
      <point x="466" y="271"/>
      <point x="600" y="247"/>
      <point x="686" y="210" type="curve"/>
      <point x="686" y="286" type="line"/>
      <point x="606" y="322"/>
      <point x="486" y="366"/>
      <point x="335" y="366" type="curve" smooth="yes"/>
      <point x="180" y="366"/>
      <point x="50" y="291"/>
      <point x="50" y="167" type="curve" smooth="yes"/>
      <point x="50" y="49"/>
      <point x="155" y="-12"/>
      <point x="298" y="-12" type="curve" smooth="yes"/>
    </contour>
    <contour>
      <point x="419" y="365" type="move" name="top"/>
    </contour>
    <contour>
      <point x="420" y="-190" type="move" name="bottom"/>
    </contour>
  </outline>
</glyph>
<glyph name="k.alt" format="1">
  <advance width="859"/>
  <outline>
    <contour>
      <point x="729" y="284" type="line"/>
      <point x="547" y="282" type="line"/>
      <point x="257" y="157" type="line"/>
      <point x="264" y="85" type="line"/>
    </contour>
    <contour>
      <point x="398" y="0" type="line"/>
      <point x="398" y="90" type="line"/>
      <point x="30" y="90" type="line"/>
      <point x="30" y="0" type="line"/>
    </contour>
    <contour>
      <point x="285" y="30" type="line"/>
      <point x="285" y="520" type="line"/>
      <point x="170" y="520" type="line"/>
      <point x="170" y="30" type="line"/>
    </contour>
    <contour>
      <point x="804" y="0" type="line"/>
      <point x="804" y="90" type="line"/>
      <point x="486" y="90" type="line"/>
      <point x="486" y="0" type="line"/>
    </contour>
    <contour>
      <point x="757" y="76" type="line"/>
      <point x="496" y="236" type="line"/>
      <point x="388" y="189" type="line"/>
      <point x="585" y="76" type="line"/>
    </contour>
    <contour>
      <point x="277" y="430" type="line"/>
      <point x="277" y="520" type="line"/>
      <point x="30" y="520" type="line"/>
      <point x="30" y="430" type="line"/>
    </contour>
    <contour>
      <point x="757" y="271" type="line"/>
      <point x="757" y="357" type="line"/>
      <point x="437" y="357" type="line"/>
      <point x="437" y="271" type="line"/>
    </contour>
    <contour>
      <point x="460" y="367" type="move" name="top"/>
    </contour>
    <contour>
      <point x="460" y="0" type="move" name="bottom"/>
    </contour>
  </outline>
</glyph>
<glyph name="one.numr" format="1">
  <advance width="316"/>
  <outline>
    <contour>
      <point x="116" y="354"/>
      <point x="149" y="388"/>
      <point x="177" y="433" type="curve"/>
      <point x="147" y="479" type="line"/>
      <point x="126" y="435"/>
      <point x="87" y="422"/>
      <point x="38" y="409" type="curve"/>
      <point x="60" y="342" type="line"/>
    </contour>
    <contour>
      <point x="310" y="204" type="line"/>
      <point x="310" y="268" type="line"/>
      <point x="46" y="268" type="line"/>
      <point x="46" y="204" type="line"/>
    </contour>
    <contour>
      <point x="227" y="234" type="line"/>
      <point x="227" y="479" type="line"/>
      <point x="147" y="479" type="line"/>
      <point x="147" y="234" type="line"/>
    </contour>
  </outline>
</glyph>
<glyph name="seven.alt" format="1">
  <advance width="735"/>
  <outline>
    <contour>
      <point x="74" y="286" type="line"/>
      <point x="168" y="286" type="line"/>
      <point x="168" y="376" type="line"/>
      <point x="604" y="376" type="line"/>
      <point x="604" y="322"/>
      <point x="513" y="297"/>
      <point x="345" y="248" type="curve" smooth="yes"/>
      <point x="157" y="182"/>
      <point x="130" y="72"/>
      <point x="129" y="0" type="curve"/>
      <point x="232" y="0" type="line"/>
      <point x="232" y="52"/>
      <point x="256" y="128"/>
      <point x="430" y="180" type="curve" smooth="yes"/>
      <point x="624" y="238"/>
      <point x="711" y="285"/>
      <point x="711" y="391" type="curve" smooth="yes"/>
      <point x="711" y="472" type="line"/>
      <point x="74" y="472" type="line"/>
    </contour>
  </outline>
</glyph>
<glyph name="three.numr" format="1">
  <advance width="445"/>
  <outline>
    <contour>
      <point x="334" y="194"/>
      <point x="413" y="223"/>
      <point x="413" y="270" type="curve" smooth="yes"/>
      <point x="413" y="339"/>
      <point x="330" y="344"/>
      <point x="220" y="344" type="curve"/>
      <point x="220" y="324" type="line"/>
      <point x="309" y="323"/>
      <point x="397" y="347"/>
      <point x="397" y="400" type="curve" smooth="yes"/>
      <point x="397" y="451"/>
      <point x="339" y="480"/>
      <point x="242" y="480" type="curve" smooth="yes"/>
      <point x="164" y="480"/>
      <point x="87" y="454"/>
      <point x="40" y="424" type="curve"/>
      <point x="75" y="377" type="line"/>
      <point x="125" y="402"/>
      <point x="180" y="421"/>
      <point x="239" y="421" type="curve" smooth="yes"/>
      <point x="289" y="421"/>
      <point x="322" y="409"/>
      <point x="322" y="393" type="curve" smooth="yes"/>
      <point x="322" y="366"/>
      <point x="283" y="363"/>
      <point x="196" y="363" type="curve" smooth="yes"/>
      <point x="106" y="363" type="line"/>
      <point x="106" y="306" type="line"/>
      <point x="196" y="306" type="line" smooth="yes"/>
      <point x="299" y="306"/>
      <point x="338" y="310"/>
      <point x="338" y="279" type="curve" smooth="yes"/>
      <point x="338" y="259"/>
      <point x="287" y="252"/>
      <point x="228" y="252" type="curve" smooth="yes"/>
      <point x="148" y="252"/>
      <point x="92" y="274"/>
      <point x="68" y="286" type="curve"/>
      <point x="38" y="235" type="line"/>
      <point x="59" y="223"/>
      <point x="121" y="194"/>
      <point x="227" y="194" type="curve" smooth="yes"/>
    </contour>
  </outline>
</glyph>
<glyph name="two.alt" format="1">
  <advance width="731"/>
  <outline>
    <contour>
      <point x="675" y="0" type="line"/>
      <point x="675" y="170" type="line"/>
      <point x="579" y="170" type="line"/>
      <point x="579" y="96" type="line"/>
      <point x="42" y="96" type="line"/>
      <point x="42" y="0" type="line"/>
    </contour>
    <contour>
      <point x="666" y="429"/>
      <point x="537" y="481"/>
      <point x="402" y="480" type="curve" smooth="yes"/>
      <point x="273" y="479"/>
      <point x="155" y="447"/>
      <point x="46" y="383" type="curve"/>
      <point x="89" y="300" type="line"/>
      <point x="179" y="351"/>
      <point x="301" y="383"/>
      <point x="402" y="383" type="curve" smooth="yes"/>
      <point x="501" y="383"/>
      <point x="548" y="360"/>
      <point x="547" y="331" type="curve" smooth="yes"/>
      <point x="546" y="297"/>
      <point x="499" y="290"/>
      <point x="325" y="264" type="curve" smooth="yes"/>
      <point x="118" y="233"/>
      <point x="42" y="166"/>
      <point x="42" y="84" type="curve"/>
      <point x="159" y="84" type="line"/>
      <point x="159" y="127"/>
      <point x="184" y="154"/>
      <point x="371" y="174" type="curve" smooth="yes"/>
      <point x="562" y="194"/>
      <point x="666" y="231"/>
      <point x="666" y="331" type="curve" smooth="yes"/>
    </contour>
  </outline>
</glyph>
<glyph name="u.alt" format="1">
  <advance width="879"/>
  <outline>
    <contour>
      <point x="502" y="-10"/>
      <point x="611" y="87"/>
      <point x="691" y="172" type="curve"/>
      <point x="691" y="262" type="line"/>
      <point x="629" y="194"/>
      <point x="518" y="98"/>
      <point x="396" y="98" type="curve" smooth="yes"/>
      <point x="281" y="98"/>
      <point x="255" y="165"/>
      <point x="255" y="231" type="curve" smooth="yes"/>
      <point x="255" y="357" type="line"/>
      <point x="140" y="357" type="line"/>
      <point x="140" y="236" type="line" smooth="yes"/>
      <point x="140" y="117"/>
      <point x="190" y="-10"/>
      <point x="368" y="-10" type="curve" smooth="yes"/>
    </contour>
    <contour>
      <point x="237" y="267" type="line"/>
      <point x="237" y="357" type="line"/>
      <point x="10" y="357" type="line"/>
      <point x="10" y="267" type="line"/>
    </contour>
    <contour>
      <point x="728" y="267" type="line"/>
      <point x="728" y="357" type="line"/>
      <point x="512" y="357" type="line"/>
      <point x="512" y="267" type="line"/>
    </contour>
    <contour>
      <point x="836" y="-16"/>
      <point x="877" y="45"/>
      <point x="877" y="115" type="curve" smooth="yes"/>
      <point x="877" y="163" type="line"/>
      <point x="818" y="163" type="line"/>
      <point x="818" y="114" type="line" smooth="yes"/>
      <point x="818" y="82"/>
      <point x="808" y="58"/>
      <point x="781" y="58" type="curve" smooth="yes"/>
      <point x="748" y="58"/>
      <point x="740" y="85"/>
      <point x="740" y="121" type="curve" smooth="yes"/>
      <point x="740" y="357" type="line"/>
      <point x="625" y="357" type="line"/>
      <point x="625" y="123" type="line" smooth="yes"/>
      <point x="625" y="40"/>
      <point x="673" y="-16"/>
      <point x="759" y="-16" type="curve" smooth="yes"/>
    </contour>
    <contour>
      <point x="781" y="-4" type="move" name="ogonek"/>
    </contour>
    <contour>
      <point x="458" y="357" type="move" name="top"/>
    </contour>
    <contour>
      <point x="845" y="357" type="move" name="topright"/>
    </contour>
    <contour>
      <point x="458" y="-20" type="move" name="bottom"/>
    </contour>
  </outline>
</glyph>
<glyph name="w.bold" format="1">
  <advance width="1039"/>
  <outline>
    <contour>
      <point x="141" y="267" type="line"/>
      <point x="141" y="277" type="line"/>
      <point x="309" y="277" type="line"/>
      <point x="309" y="357" type="line"/>
      <point x="16" y="357" type="line"/>
      <point x="16" y="267" type="line"/>
    </contour>
    <contour>
      <point x="350" y="-10" type="line"/>
      <point x="379" y="50" type="line"/>
      <point x="206" y="298" type="line"/>
      <point x="90" y="298" type="line"/>
      <point x="296" y="-10" type="line"/>
    </contour>
    <contour>
      <point x="360" y="-10" type="line"/>
      <point x="547" y="260" type="line"/>
      <point x="533" y="347" type="line"/>
      <point x="504" y="347" type="line"/>
      <point x="308" y="50" type="line"/>
      <point x="341" y="-10" type="line"/>
    </contour>
    <contour>
      <point x="733" y="-10" type="line"/>
      <point x="762" y="50" type="line"/>
      <point x="568" y="347" type="line"/>
      <point x="521" y="347" type="line"/>
      <point x="492" y="260" type="line"/>
      <point x="679" y="-10" type="line"/>
    </contour>
    <contour>
      <point x="743" y="-10" type="line"/>
      <point x="954" y="304" type="line"/>
      <point x="863" y="304" type="line"/>
      <point x="687" y="50" type="line"/>
      <point x="723" y="-10" type="line"/>
    </contour>
    <contour>
      <point x="898" y="277" type="line"/>
      <point x="898" y="267" type="line"/>
      <point x="1023" y="267" type="line"/>
      <point x="1023" y="357" type="line"/>
      <point x="765" y="357" type="line"/>
      <point x="765" y="277" type="line"/>
    </contour>
    <contour>
      <point x="532" y="357" type="move" name="top"/>
    </contour>
    <contour>
      <point x="517" y="0" type="move" name="bottom"/>
    </contour>
  </outline>
</glyph>
<glyph name="x.alt" format="1">
  <advance width="777"/>
  <outline>
    <contour>
      <point x="748" y="267" type="line"/>
      <point x="748" y="357" type="line"/>
      <point x="441" y="357" type="line"/>
      <point x="441" y="267" type="line"/>
    </contour>
    <contour>
      <point x="218" y="77" type="line"/>
      <point x="404" y="158" type="line"/>
      <point x="435" y="155" type="line"/>
      <point x="693" y="282" type="line"/>
      <point x="564" y="282" type="line"/>
      <point x="389" y="210" type="line"/>
      <point x="357" y="213" type="line"/>
      <point x="88" y="77" type="line"/>
    </contour>
    <contour>
      <point x="342" y="-1" type="line"/>
      <point x="342" y="89" type="line"/>
      <point x="35" y="89" type="line"/>
      <point x="35" y="-1" type="line"/>
    </contour>
    <contour>
      <point x="133" y="200" type="line"/>
      <point x="133" y="237"/>
      <point x="157" y="271"/>
      <point x="210" y="271" type="curve" smooth="yes"/>
      <point x="269" y="271"/>
      <point x="303" y="233"/>
      <point x="342" y="181" type="curve"/>
      <point x="350" y="180" type="line"/>
      <point x="404" y="83"/>
      <point x="475" y="-8"/>
      <point x="589" y="-8" type="curve" smooth="yes"/>
      <point x="679" y="-8"/>
      <point x="756" y="47"/>
      <point x="763" y="148" type="curve"/>
      <point x="664" y="160" type="line"/>
      <point x="664" y="116"/>
      <point x="627" y="89"/>
      <point x="590" y="89" type="curve" smooth="yes"/>
      <point x="539" y="89"/>
      <point x="501" y="131"/>
      <point x="448" y="202" type="curve"/>
      <point x="439" y="205" type="line"/>
      <point x="388" y="295"/>
      <point x="330" y="367"/>
      <point x="212" y="367" type="curve" smooth="yes"/>
      <point x="106" y="367"/>
      <point x="45" y="306"/>
      <point x="35" y="212" type="curve"/>
    </contour>
    <contour>
      <point x="367" y="357" type="move" name="top"/>
    </contour>
    <contour>
      <point x="367" y="0" type="move" name="bottom"/>
    </contour>
  </outline>
</glyph>
<glyph name="z.alt" format="1">
  <advance width="718"/>
  <outline>
    <contour>
      <point x="662" y="0" type="line"/>
      <point x="662" y="172" type="line"/>
      <point x="566" y="172" type="line"/>
      <point x="566" y="90" type="line"/>
      <point x="328" y="90" type="line"/>
      <point x="277" y="77" type="line"/>
      <point x="276" y="80" type="line"/>
      <point x="324" y="100" type="line"/>
      <point x="663" y="293" type="line"/>
      <point x="663" y="355" type="line"/>
      <point x="85" y="355" type="line"/>
      <point x="85" y="183" type="line"/>
      <point x="181" y="183" type="line"/>
      <point x="181" y="265" type="line"/>
      <point x="410" y="265" type="line"/>
      <point x="461" y="277" type="line"/>
      <point x="462" y="274" type="line"/>
      <point x="416" y="254" type="line"/>
      <point x="79" y="62" type="line"/>
      <point x="79" y="0" type="line"/>
    </contour>
    <contour>
      <point x="398" y="367" type="move" name="top"/>
    </contour>
    <contour>
      <point x="400" y="-10" type="move" name="bottom"/>
    </contour>
  </outline>
</glyph>
